<svg width="25" height="25" viewBox="0 0 25 25" fill="none" xmlns="http://www.w3.org/2000/svg">
<g id="dog-food 1">
<g id="Group">
<path id="Vector" d="M24.9891 17.8621L23.1695 9.90314C23.1657 9.88668 23.1608 9.87073 23.1554 9.85519C23.0168 9.35178 22.3498 8.97139 21.0497 8.65132C20.8024 7.35217 19.6587 6.3667 18.2887 6.3667C18.2012 6.3667 18.1136 6.37089 18.0261 6.37912C17.5484 5.45698 16.5854 4.85885 15.5285 4.85885C15.2059 4.85885 14.8855 4.91472 14.5835 5.02226C14.1327 4.32155 13.3549 3.8877 12.5001 3.8877C11.6452 3.8877 10.8675 4.3215 10.4166 5.02226C10.1146 4.91472 9.79416 4.85885 9.47158 4.85885C8.41465 4.85885 7.45168 5.45703 6.97397 6.37912C6.88646 6.37084 6.79886 6.3667 6.71145 6.3667C5.34136 6.3667 4.19769 7.35217 3.95041 8.65132C2.61997 8.9789 1.95207 9.36946 1.83554 9.89056C1.8338 9.8969 1.83165 9.90303 1.83022 9.90953L0.0109383 17.862C0.00368017 17.8938 0 17.9263 0 17.9589C0 18.7916 1.30022 19.5341 3.86443 20.1659C6.34221 20.7763 9.40907 21.1125 12.5 21.1125C15.591 21.1125 18.6578 20.7763 21.1356 20.1659C23.6998 19.5341 25 18.7916 25 17.9589C25 17.9263 24.9964 17.8939 24.9891 17.8621ZM21.0738 9.55516C21.9007 9.7796 22.1897 9.97689 22.2827 10.062C22.1758 10.1602 21.8094 10.407 20.6702 10.6708C20.8811 10.3343 21.0198 9.95466 21.0738 9.55516ZM6.7114 7.23558C6.85447 7.23558 6.99897 7.25183 7.14091 7.28383C7.35446 7.33208 7.57041 7.21385 7.64499 7.00807C7.92264 6.24224 8.65663 5.72768 9.47153 5.72768C9.79692 5.72768 10.1188 5.80971 10.4024 5.96495C10.5106 6.02414 10.6388 6.03461 10.7552 5.99367C10.8715 5.95273 10.965 5.86425 11.0123 5.75032C11.2627 5.14657 11.8467 4.75652 12.5001 4.75652C13.1534 4.75652 13.7373 5.14662 13.9878 5.75032C14.035 5.86425 14.1285 5.95273 14.2449 5.99367C14.3612 6.03461 14.4895 6.02414 14.5977 5.96495C14.8812 5.80971 15.2031 5.72768 15.5285 5.72768C16.3434 5.72768 17.0774 6.24224 17.3551 7.00807C17.4296 7.2138 17.6456 7.33218 17.8591 7.28383C18.0011 7.25183 18.1456 7.23558 18.2887 7.23558C19.3596 7.23558 20.2019 8.10732 20.231 9.17789C20.2511 9.91888 19.7225 10.5699 19.2073 10.9424C17.3557 11.2202 14.9821 11.3729 12.5001 11.3729C10.0796 11.3729 7.76245 11.2276 5.93182 10.9628C5.24792 10.6438 4.76914 9.93273 4.76914 9.17789C4.76909 8.10691 5.64042 7.23558 6.7114 7.23558ZM3.92608 9.55521C3.98046 9.95594 4.12041 10.3356 4.33069 10.671C3.19086 10.4072 2.82427 10.1602 2.71734 10.062C2.81032 9.97689 3.09921 9.77965 3.92608 9.55521ZM20.7349 19.3688C18.3556 19.9329 15.4311 20.2436 12.5001 20.2436C9.56905 20.2436 6.64449 19.9329 4.26516 19.3688C1.92141 18.8131 0.993543 18.2068 0.877363 17.9712L2.48294 10.9527C2.64763 11.0451 2.80296 11.1076 2.8943 11.1444C3.43922 11.3638 4.20827 11.5589 5.18004 11.7244C7.13917 12.058 9.73875 12.2418 12.5001 12.2418C15.2614 12.2418 17.8609 12.058 19.82 11.7244C20.7918 11.5589 21.5608 11.3638 22.1058 11.1444C22.1972 11.1075 22.3529 11.0449 22.518 10.9522L24.1227 17.9712C24.0066 18.2067 23.0787 18.813 20.7349 19.3688Z" fill="#555555"/>
<path id="Vector_2" d="M17.7852 12.5884C16.7756 12.5884 15.9353 13.327 15.7762 14.2921H9.22368C9.06461 13.327 8.22426 12.5884 7.21471 12.5884C6.09206 12.5884 5.17871 13.5017 5.17871 14.6244C5.17871 15.0722 5.32505 15.501 5.58977 15.8511C5.32505 16.2012 5.17871 16.63 5.17871 17.0778C5.17871 18.2005 6.09206 19.1138 7.21471 19.1138C8.22426 19.1138 9.06456 18.3752 9.22368 17.4101H15.7762C15.9353 18.3752 16.7756 19.1138 17.7852 19.1138C18.9078 19.1138 19.8212 18.2005 19.8212 17.0778C19.8212 16.63 19.6748 16.2012 19.4101 15.8511C19.6748 15.501 19.8212 15.0722 19.8212 14.6244C19.8212 13.5017 18.9078 12.5884 17.7852 12.5884ZM18.535 16.1839C18.8002 16.4065 18.9523 16.7324 18.9523 17.0779C18.9523 17.7214 18.4287 18.245 17.7852 18.245C17.1416 18.245 16.6181 17.7214 16.6181 17.0779C16.6181 17.0528 16.6191 17.0279 16.6207 17.0032C16.6283 16.8834 16.586 16.7658 16.5039 16.6784C16.4217 16.5909 16.3071 16.5412 16.1871 16.5412H8.81283C8.69281 16.5412 8.57817 16.5909 8.49603 16.6784C8.41389 16.7659 8.37162 16.8834 8.37923 17.0032C8.38082 17.0279 8.38184 17.0528 8.38184 17.0779C8.38184 17.7214 7.85828 18.245 7.21471 18.245C6.57119 18.245 6.04764 17.7214 6.04764 17.0779C6.04764 16.7324 6.1997 16.4066 6.46488 16.1839C6.56317 16.1013 6.61996 15.9795 6.61996 15.8512C6.61996 15.7228 6.56322 15.601 6.46488 15.5185C6.1997 15.2958 6.04764 14.97 6.04764 14.6244C6.04764 13.9809 6.57119 13.4574 7.21471 13.4574C7.85828 13.4574 8.38184 13.9809 8.38184 14.6244C8.38184 14.6495 8.38082 14.6744 8.37923 14.6991C8.37162 14.8189 8.41389 14.9365 8.49603 15.0239C8.57811 15.1114 8.69281 15.1611 8.81283 15.1611H16.1871C16.3071 15.1611 16.4217 15.1114 16.5039 15.0239C16.586 14.9364 16.6283 14.8189 16.6207 14.6991C16.6191 14.6744 16.6181 14.6495 16.6181 14.6244C16.6181 13.9809 17.1416 13.4574 17.7852 13.4574C18.4287 13.4574 18.9523 13.9809 18.9523 14.6244C18.9523 14.9699 18.8002 15.2958 18.535 15.5185C18.4367 15.601 18.3799 15.7228 18.3799 15.8512C18.38 15.9795 18.4367 16.1013 18.535 16.1839Z" fill="#555555"/>
</g>
</g>
</svg>
