<svg width="23" height="23" viewBox="0 0 23 23" fill="none" xmlns="http://www.w3.org/2000/svg">
<g id="cat (2) 1" clip-path="url(#clip0_1_5365)">
<path id="Vector" d="M0.067812 14.614C0.067812 14.2723 0.338451 12.8394 1.12042 11.2755C0.912506 8.60305 0.644112 2.04992 2.58133 0.20456C2.75813 0.0360615 3.00848 -0.03088 3.24585 0.0264984C5.8444 0.655506 7.9784 2.49566 8.98473 4.97882C10.6822 4.57942 12.3319 4.57129 13.9944 4.97375C14.021 4.98017 15.2899 1.10183 19.7321 0.0264984C19.9695 -0.03088 20.2197 0.0361513 20.3966 0.20456C22.7028 2.4016 21.8476 11.215 21.8649 11.2467C21.8649 11.3067 22.6854 12.6224 22.9345 14.6345C23.1841 16.4593 22.6398 17.74 22.6398 17.7855C21.1463 21.9438 15.9303 22.9936 11.5 22.9936C7.07238 22.9936 1.84645 21.9421 0.360092 17.7855C0.360092 17.781 -0.187517 16.3671 0.067812 14.614ZM3.34144 1.54303C2.16482 3.47352 2.44475 9.23628 2.4487 9.23174C3.87971 7.44134 5.70832 6.14511 7.60895 5.41109C6.79882 3.50503 5.21032 2.12773 3.34144 1.54303ZM19.6366 1.54299C17.7658 2.12808 16.1805 3.50669 15.3717 5.40395C17.2831 6.13645 19.1107 7.43739 20.5349 9.21149C20.5987 7.31854 20.62 3.15376 19.6366 1.54299ZM4.22708 20.0969C7.7862 22.0545 15.211 22.056 18.7728 20.0969C19.647 19.616 20.3173 19.0234 20.7811 18.3243H18.6835C18.2868 18.3243 17.9651 18.0027 17.9651 17.606C17.9651 17.2092 18.2868 16.8876 18.6835 16.8876H21.4074C21.522 16.4214 21.5681 15.9236 21.5551 15.4509H18.6835C18.2868 15.4509 17.9651 15.1293 17.9651 14.7326C17.9651 14.3358 18.2868 14.0142 18.6835 14.0142H21.3701C20.6383 10.8297 17.8617 7.65725 14.2329 6.52907C8.41741 4.72385 2.75378 9.123 1.62974 14.0142H4.31638C4.71313 14.0142 5.03473 14.3358 5.03473 14.7326C5.03473 15.1293 4.71313 15.4509 4.31638 15.4509H1.44476C1.43174 15.9232 1.47776 16.421 1.59247 16.8876H4.31638C4.71313 16.8876 5.03473 17.2092 5.03473 17.606C5.03473 18.0027 4.71313 18.3243 4.31638 18.3243H2.21878C2.68262 19.0233 3.35293 19.616 4.22708 20.0969Z" fill="#555555"/>
<path id="Vector_2" d="M7.54871 17.4265C7.94547 17.4265 8.26706 17.7481 8.26706 18.1448C8.26706 18.838 8.83101 19.402 9.52418 19.402C10.0947 19.402 10.5773 19.0198 10.7304 18.4981C9.52557 17.9046 8.88503 15.9798 9.72622 15.1453C10.2235 14.6519 10.9429 14.7379 11.684 14.7317C12.2556 14.7276 12.8471 14.7226 13.2731 15.1453C14.1237 15.9892 13.4615 17.9106 12.2689 18.4981C12.422 19.0198 12.9046 19.402 13.4751 19.402C14.1683 19.402 14.7322 18.838 14.7322 18.1448C14.7322 17.7481 15.0539 17.4265 15.4506 17.4265C15.8473 17.4265 16.1689 17.7481 16.1689 18.1448C16.1689 20.5982 13.1548 21.7602 11.4997 19.9737C9.84537 21.7592 6.83036 20.6 6.83036 18.1448C6.83036 17.7481 7.15195 17.4265 7.54871 17.4265ZM10.7814 16.1817C10.7882 16.6884 11.2118 17.2469 11.4997 17.2469C11.7875 17.2469 12.2111 16.6884 12.2179 16.1817C12.0481 16.1613 10.9359 16.163 10.7814 16.1817Z" fill="#555555"/>
<path id="Vector_3" d="M14.9118 13.296C14.2186 13.296 13.6547 12.7321 13.6547 12.0389C13.6547 11.3456 14.2186 10.7817 14.9118 10.7817C15.605 10.7817 16.1689 11.3456 16.1689 12.0389C16.1689 12.7321 15.605 13.296 14.9118 13.296Z" fill="#555555"/>
<path id="Vector_4" d="M8.08761 10.7817C8.78082 10.7817 9.34473 11.3456 9.34473 12.0389C9.34473 12.7321 8.78082 13.296 8.08761 13.296C7.3944 13.296 6.83049 12.7321 6.83049 12.0389C6.83049 11.3456 7.3944 10.7817 8.08761 10.7817Z" fill="#555555"/>
</g>
<defs>
<clipPath id="clip0_1_5365">
<rect width="23" height="23" fill="white" transform="matrix(-1 0 0 1 23 0)"/>
</clipPath>
</defs>
</svg>
