<svg width="62" height="60" viewBox="0 0 62 60" fill="none" xmlns="http://www.w3.org/2000/svg">
<g id="Group">
<g id="Group_2">
<path id="Vector" d="M8.74718 36.7502C12.3035 47.6739 26.2073 50.4721 33.1642 41.085C33.5322 40.628 33.8456 40.0518 34.1266 39.5626C27.667 35.3775 22.7076 27.6927 24.3958 21.2937C25.9445 15.5357 32.21 15.9866 34.7837 20.5073C37.8265 25.8953 38.9182 32.5369 37.0117 38.4585C41.306 40.7492 46.1926 41.1819 50.2767 37.6539C57.1446 31.6979 55.4201 19.5752 49.2173 13.902C48.5319 13.3501 49.3325 12.2623 50.0179 12.8143C59.035 19.4358 59.0107 35.4604 49.0373 41.2507C45.1453 43.4646 40.4103 42.8903 36.0837 40.6865C33.2755 46.3718 26.921 49.3519 20.7648 49.1396C13.6421 48.8646 8.94948 43.6546 7.05514 37.3081C6.73758 36.2992 8.39756 35.8283 8.74718 36.7502ZM34.7554 26.4351C34.0761 24.005 33.0591 21.1522 31.003 19.4964C29.0339 17.8729 27.0868 20.7115 26.4824 22.0701C25.7485 23.7765 26.3834 25.7943 27.0606 27.4319C28.405 31.0002 31.4437 34.8033 35.0547 37.3344C36.0554 33.8469 35.6329 29.9288 34.7554 26.4351Z" fill="#333333"/>
<path id="Vector_2" d="M5.07571 31.7221C7.50994 32.6278 9.9664 33.7398 12.0872 35.2218C12.9464 35.8384 12.0266 36.9807 11.1348 36.451C9.35163 35.3915 7.31974 34.7345 5.37479 34.1097C5.04125 35.2721 4.6753 36.5216 4.42864 37.7164C4.27902 38.6505 4.40235 40.181 3.55724 40.8563C3.13463 41.1941 2.69995 41.0323 2.33002 40.6966C1.44853 39.8737 2.12785 38.048 2.30982 37.027C2.63134 35.365 3.09441 33.8549 3.67675 32.2899C3.87073 31.7686 4.55409 31.528 5.07571 31.7221Z" fill="#333333"/>
</g>
</g>
</svg>
