<svg width="55" height="55" viewBox="0 0 55 55" fill="none" xmlns="http://www.w3.org/2000/svg">
<g id="customer-service 1">
<g id="Group">
<g id="Group_2">
<path id="Vector" d="M49.5872 40.5438C48.1934 38.6804 46.2776 37.3479 44.0459 36.6893L38.5136 34.9644C38.5132 34.9643 38.5128 34.9641 38.5125 34.964L34.5551 33.7302C34.2013 33.6196 33.8272 33.6332 33.4902 33.7567C33.21 33.5072 33.0412 33.1456 33.0412 32.7608V32.5133L39.1525 30.9243C41.2365 30.3824 42.6919 28.5002 42.6919 26.3468V23.3274C43.5535 22.9861 44.1647 22.1452 44.1647 21.1637V17.2265C44.1647 16.2391 43.559 15.4024 42.6919 15.0639V14.2755C42.6919 13.6681 42.6534 13.0565 42.5772 12.4575C42.521 12.0158 42.1171 11.7042 41.6756 11.7593C41.2338 11.8155 40.9212 12.2192 40.9774 12.661C41.0449 13.1927 41.0792 13.7358 41.0792 14.2755V15.7085V15.8034C40.6477 15.6996 40.0916 15.53 39.4955 15.258C39.4671 15.2451 39.4392 15.2319 39.411 15.2188C38.2724 14.684 37.0039 13.7719 36.1811 12.2262C36.1687 12.2028 36.1564 12.1793 36.1442 12.1557C36.1134 12.096 36.0832 12.0357 36.0537 11.9741C36.0309 11.9264 36.0091 11.878 35.9873 11.8295C35.9671 11.7847 35.9466 11.7405 35.9271 11.6948C35.8852 11.596 35.8447 11.496 35.8068 11.394C35.7166 11.1515 35.5155 10.967 35.2661 10.8981C35.2036 10.8808 35.1402 10.8712 35.0768 10.8692C35.0649 10.8688 35.0529 10.8699 35.041 10.8701C35.0213 10.8704 35.0017 10.87 34.9821 10.8718C34.8432 10.8837 34.7091 10.9328 34.5924 11.0137C34.5773 11.0242 34.5617 11.0341 34.5471 11.0457C34.5443 11.0479 34.5329 11.057 34.5149 11.071C34.5128 11.0726 34.5114 11.0737 34.5092 11.0754C34.5024 11.0807 34.4935 11.0876 34.485 11.0941C34.4789 11.0989 34.473 11.1035 34.4659 11.1088C34.4586 11.1144 34.4499 11.1211 34.4417 11.1274C34.4298 11.1366 34.4174 11.146 34.4036 11.1565C34.3973 11.1613 34.3905 11.1665 34.3838 11.1716C34.3654 11.1854 34.3459 11.2003 34.3245 11.2164C34.3201 11.2197 34.3155 11.2231 34.311 11.2266C32.8189 12.3458 24.516 18.235 16.5481 17.111C16.534 17.109 16.5199 17.1069 16.5059 17.1048C16.3778 17.0863 16.2498 17.0657 16.1219 17.0436C16.0854 17.0373 16.049 17.0307 16.0125 17.024C15.902 17.0039 15.7918 16.9824 15.6816 16.9595C15.6462 16.9521 15.6105 16.945 15.5752 16.9372C15.4479 16.9097 15.3208 16.8802 15.1938 16.8487C15.1422 16.8359 15.0911 16.822 15.0398 16.8085C14.9611 16.788 14.8827 16.7669 14.8043 16.7448C14.7423 16.7274 14.6803 16.7097 14.6187 16.6914C14.533 16.6658 14.4473 16.6389 14.3618 16.6115C14.2851 16.5869 14.2087 16.5616 14.1326 16.5356C14.0466 16.5063 13.9608 16.4763 13.8752 16.4449C13.8242 16.4262 13.7733 16.4073 13.7226 16.388C13.6071 16.3441 13.4918 16.2988 13.3769 16.2511C13.3663 16.2467 13.3556 16.2428 13.3451 16.2384V15.8408V14.2754C13.3451 7.29321 19.0256 1.61273 26.0078 1.61273H28.4164C33.4799 1.61273 38.0469 4.61786 40.0511 9.26881C40.2273 9.67787 40.7018 9.86661 41.1108 9.69022C41.5197 9.51394 41.7085 9.03957 41.5322 8.63061C39.2729 3.38777 34.1246 0 28.4164 0H26.0079C18.1363 0 11.7325 6.40386 11.7325 14.2754V15.3939C11.1756 15.829 10.8354 16.502 10.8354 17.2264V21.1635C10.8354 21.9078 11.1871 22.571 11.7325 22.9972V26.3152C11.7325 28.4909 13.2068 30.378 15.3178 30.9044L21.9588 32.5604V32.7608C21.9588 33.1457 21.7901 33.5074 21.5098 33.757C21.1727 33.6335 20.7988 33.62 20.4451 33.7302L16.4877 34.9641C16.4873 34.9642 16.4868 34.9644 16.4864 34.9645L10.9544 36.6894C7.88728 37.5944 5.4054 39.7994 4.14448 42.74C4.04759 42.9661 3.95725 43.1986 3.87614 43.4312C3.7294 43.8517 3.95123 44.3115 4.37179 44.4582C4.79235 44.6047 5.25201 44.3832 5.39885 43.9626C5.46782 43.765 5.54452 43.5675 5.6268 43.3754C6.69844 40.876 8.80854 39.0023 11.4159 38.2345C11.42 38.2333 11.424 38.2322 11.4281 38.2309L16.4669 36.6598L20.6785 41.4664C21.2912 42.1656 22.1583 42.5457 23.0516 42.5457C23.3933 42.5456 23.7389 42.4901 24.0755 42.3754L27.5 41.2088L30.5793 42.2578C30.974 42.3922 31.379 42.4574 31.7797 42.4574C32.8269 42.4573 33.8436 42.0117 34.5618 41.1921L38.5331 36.6598L43.5718 38.2309C43.5759 38.2322 43.58 38.2333 43.5841 38.2345C45.4816 38.7932 47.1109 39.9259 48.2957 41.5098C49.4806 43.0938 50.1068 44.9766 50.1068 46.9547V53.2816C50.1068 53.3398 50.0595 53.3872 50.0014 53.3872H45.6455V46.0154C45.6455 45.5701 45.2845 45.209 44.8391 45.209C44.3937 45.209 44.0327 45.57 44.0327 46.0154V53.3872H10.9673V46.0154C10.9673 45.5701 10.6062 45.209 10.1609 45.209C9.7155 45.209 9.35445 45.57 9.35445 46.0154V53.3872H4.9986C4.94037 53.3872 4.89311 53.3398 4.89311 53.2816V47.4743C4.89311 47.029 4.53206 46.6679 4.08669 46.6679C3.64132 46.6679 3.28027 47.0289 3.28027 47.4743V53.2816C3.28027 54.229 4.05113 55 4.9986 55H50.0014C50.9488 55 51.7197 54.2291 51.7197 53.2816V46.9547C51.7197 44.6258 50.9822 42.4089 49.5872 40.5438ZM38.7465 29.3633L34.8739 30.3703C34.9235 30.3344 34.9712 30.2963 35.0202 30.2597C35.0404 30.2447 35.0603 30.2293 35.0804 30.2142C35.2184 30.1102 35.3539 30.0035 35.4871 29.8942C35.5045 29.8799 35.5219 29.8656 35.5392 29.8512C35.6815 29.7331 35.821 29.6123 35.9577 29.4883C35.9643 29.4823 35.9711 29.4765 35.9776 29.4705C36.1962 29.2715 36.4075 29.0653 36.6114 28.852C36.6267 28.8361 36.6416 28.8198 36.6566 28.8039C36.7575 28.6973 36.8569 28.5892 36.954 28.4792L37.8642 28.3231C39.3635 28.066 40.5579 27.0442 41.0789 25.6976V26.3467H41.079C41.0791 27.7657 40.1199 29.0062 38.7465 29.3633ZM39.9935 21.8468C40.0295 21.5812 40.0573 21.3131 40.0764 21.0425C40.0784 21.0151 40.0799 20.9877 40.0817 20.9604C40.0884 20.8547 40.0939 20.7488 40.098 20.6424C40.0994 20.6082 40.1009 20.574 40.1019 20.5397C40.106 20.4087 40.1086 20.2774 40.1086 20.1454V17.2147C41.0492 17.4974 41.7344 17.56 41.8198 17.5668C41.8202 17.5668 41.8213 17.5669 41.8216 17.5669C41.8219 17.5669 41.8222 17.5669 41.8226 17.5669C42.0464 17.5846 42.2676 17.5079 42.4326 17.3553C42.4542 17.3353 42.4745 17.3142 42.4936 17.2923C42.5004 17.2845 42.5062 17.2762 42.5126 17.2682C42.5245 17.2535 42.5364 17.2388 42.5471 17.2233C42.5485 17.2213 42.5503 17.2193 42.5517 17.2173C42.5517 17.2202 42.5517 17.2233 42.5517 17.2263V21.1634C42.5517 21.5455 42.2499 21.8576 41.8721 21.8756C41.8677 21.8758 41.8633 21.8752 41.8588 21.8754C41.8461 21.8759 41.8335 21.8765 41.8194 21.8775H39.9895C39.9911 21.8674 39.9921 21.8571 39.9935 21.8468ZM38.714 25.9057C38.7703 25.7966 38.825 25.6864 38.8781 25.5755C38.905 25.5193 38.9312 25.4628 38.9573 25.4063C39.0069 25.2988 39.0554 25.1905 39.102 25.0813C39.1261 25.0249 39.1493 24.9681 39.1726 24.9113C39.2131 24.8125 39.2523 24.713 39.2904 24.613C39.3079 24.5668 39.3261 24.5209 39.3432 24.4745C39.3899 24.3471 39.4338 24.2185 39.4765 24.0893C39.4924 24.0411 39.5083 23.9929 39.5236 23.9445C39.5657 23.8115 39.6057 23.6775 39.6435 23.5427C39.6484 23.5252 39.6542 23.5081 39.6591 23.4906H39.7508V24.1732C39.7508 25.1377 39.2256 25.9901 38.4248 26.4383C38.4453 26.4028 38.4639 26.3663 38.4841 26.3308C38.5305 26.2486 38.5762 26.166 38.6207 26.0827C38.652 26.0238 38.6834 25.965 38.714 25.9057ZM12.8697 21.8141C12.8691 21.8138 12.8683 21.8137 12.8676 21.8133C12.6205 21.7009 12.4481 21.4523 12.4481 21.1637V17.608C12.4717 17.6184 12.4957 17.6283 12.5193 17.6386C12.5564 17.6548 12.5937 17.6707 12.6309 17.6865C12.7111 17.7207 12.7915 17.7541 12.8724 17.7867C12.9078 17.801 12.9429 17.8154 12.9783 17.8294C13.087 17.8724 13.1963 17.9141 13.3063 17.9545C13.3108 17.9561 13.3152 17.958 13.3197 17.9596C13.8307 18.1464 14.3555 18.3054 14.8912 18.4352V20.1455C14.8912 20.2775 14.8939 20.4088 14.898 20.5399C14.899 20.5741 14.9005 20.6083 14.9018 20.6425C14.906 20.7489 14.9114 20.8548 14.9182 20.9605C14.9199 20.9879 14.9214 21.0153 14.9234 21.0426C14.9425 21.3131 14.9704 21.5812 15.0064 21.8469C15.0078 21.8572 15.0086 21.8675 15.0101 21.8777H13.162C13.0617 21.8776 12.9633 21.8562 12.8697 21.8141ZM15.7078 29.3394C14.3167 28.9927 13.3451 27.749 13.3451 26.3152V23.4904H15.3411C15.3458 23.5076 15.3516 23.5244 15.3563 23.5415C15.395 23.6797 15.436 23.8168 15.4793 23.953C15.4945 24.0009 15.5102 24.0486 15.526 24.0962C15.5696 24.2282 15.6148 24.3595 15.6627 24.4894C15.6803 24.5372 15.6989 24.5846 15.7171 24.6322C15.7581 24.7396 15.8005 24.8465 15.8445 24.9525C15.8705 25.0155 15.8971 25.0781 15.9241 25.1406C15.9677 25.2412 16.0125 25.3411 16.0586 25.4402C16.0834 25.4937 16.1079 25.5473 16.1335 25.6005C16.1883 25.7143 16.2453 25.8267 16.3034 25.9385C16.334 25.9974 16.3649 26.0563 16.3965 26.1147C16.4541 26.2215 16.5131 26.3274 16.5736 26.4323C16.6092 26.4938 16.6457 26.5548 16.6823 26.6158C16.7276 26.6913 16.7739 26.7663 16.8207 26.8407C16.8764 26.9293 16.9332 27.0171 16.9911 27.1042C17.0301 27.1629 17.0695 27.2212 17.1095 27.2791C17.1794 27.3807 17.2509 27.4811 17.3238 27.5807C17.3601 27.6302 17.3965 27.6798 17.4335 27.7288C17.5184 27.8413 17.6057 27.9522 17.6943 28.0619C17.7238 28.0984 17.7529 28.1351 17.7829 28.1713C17.8428 28.2438 17.9035 28.3155 17.965 28.3866C17.9796 28.4036 17.9946 28.42 18.0093 28.4369C18.1231 28.5671 18.2394 28.695 18.3586 28.8205C18.3786 28.8415 18.3987 28.8623 18.4189 28.8832C18.5355 29.0044 18.6545 29.1233 18.7759 29.2399C18.7951 29.2583 18.8145 29.2768 18.8338 29.2952C18.9602 29.4151 19.0893 29.5323 19.2207 29.647C19.2362 29.6604 19.2515 29.6741 19.2669 29.6874C19.491 29.881 19.7219 30.0671 19.9598 30.2451C19.9636 30.248 19.9675 30.2507 19.9713 30.2536C20.0733 30.3298 20.175 30.4064 20.2794 30.4795L15.7078 29.3394ZM17.1767 23.9335C17.1738 23.9255 17.1708 23.9175 17.1679 23.9095C17.1391 23.8308 17.1112 23.7518 17.0842 23.6724C17.0825 23.6672 17.0808 23.6621 17.0791 23.6569C16.9988 23.4194 16.9269 23.1782 16.8627 22.9338C16.8582 22.9166 16.8534 22.8995 16.849 22.8823C16.8339 22.8236 16.8199 22.7646 16.8057 22.7055C16.7957 22.6638 16.7857 22.6222 16.7762 22.5803C16.7643 22.528 16.753 22.4755 16.7419 22.4229C16.7327 22.3797 16.7238 22.3365 16.7152 22.2931C16.7062 22.2477 16.6975 22.2022 16.689 22.1566C16.6791 22.1028 16.6696 22.049 16.6604 21.9951C16.6541 21.9576 16.6478 21.92 16.6418 21.8824C16.6318 21.8198 16.6225 21.7569 16.6136 21.6941C16.6092 21.6634 16.6048 21.6327 16.6006 21.6018C16.5914 21.5322 16.5831 21.4625 16.5752 21.3927C16.5723 21.367 16.569 21.3413 16.5663 21.3155C16.5585 21.2415 16.5517 21.1674 16.5453 21.0933C16.5434 21.0705 16.541 21.0479 16.5392 21.0251C16.5331 20.9491 16.5282 20.8731 16.5238 20.797C16.5225 20.7753 16.5208 20.7537 16.5196 20.7319C16.5155 20.6545 16.5127 20.577 16.5102 20.4996C16.5095 20.4789 16.5083 20.4585 16.5078 20.4379C16.5052 20.3404 16.5038 20.2427 16.5038 20.1451V18.7333C17.7031 18.8875 18.9595 18.905 20.2606 18.7887C20.303 18.7849 20.3458 18.7802 20.3883 18.7762C20.4938 18.7661 20.5995 18.7554 20.7055 18.7434C20.7993 18.7331 20.8933 18.7221 20.9875 18.7103C21.014 18.707 21.0407 18.7034 21.0673 18.6998C23.2565 18.4188 25.5595 17.7689 27.9388 16.7479C31.0532 15.4113 33.5078 13.7942 34.7233 12.9256C35.6858 14.7851 37.1449 15.9043 38.4912 16.5759C38.4932 16.6608 38.4956 16.7462 38.4956 16.8286V20.1454C38.4956 20.243 38.4942 20.3406 38.4916 20.4382C38.4911 20.4589 38.4899 20.4793 38.4893 20.4999C38.4868 20.5773 38.484 20.6549 38.4798 20.7322C38.4786 20.7541 38.4769 20.7756 38.4756 20.7973C38.4711 20.8734 38.4663 20.9495 38.4603 21.0254C38.4584 21.0482 38.4562 21.0708 38.4541 21.0936C38.4478 21.1677 38.441 21.2419 38.4331 21.3159C38.4304 21.3417 38.4272 21.3672 38.4243 21.393C38.4163 21.4628 38.408 21.5325 38.3988 21.6021C38.3947 21.633 38.3902 21.6637 38.3858 21.6944C38.3769 21.7573 38.3677 21.8201 38.3577 21.8827C38.3516 21.9203 38.3453 21.9579 38.339 21.9954C38.3298 22.0494 38.3204 22.1032 38.3104 22.1569C38.3019 22.2025 38.2932 22.248 38.2842 22.2934C38.2756 22.3367 38.2667 22.38 38.2575 22.4232C38.2464 22.4758 38.2351 22.5282 38.2232 22.5806C38.2137 22.6226 38.2036 22.6643 38.1936 22.7061C38.1796 22.7649 38.1656 22.8238 38.1506 22.8822C38.1459 22.9002 38.1409 22.9181 38.1362 22.9361C38.0725 23.179 38.0008 23.4187 37.9211 23.6547C37.9189 23.6609 37.917 23.6671 37.9149 23.6734C37.8881 23.752 37.8604 23.8303 37.832 23.9081C37.8288 23.917 37.8255 23.926 37.8223 23.9349C37.4122 25.0485 36.8265 26.0776 36.0993 26.9894L34.2882 27.3C34.1191 27.0028 33.8877 26.7424 33.6003 26.5391C33.0843 26.174 32.4571 26.0317 31.8345 26.139L29.2056 26.5899C27.9201 26.8103 27.0536 28.0354 27.2741 29.321C27.4117 30.1236 27.9397 30.7696 28.6429 31.082C28.267 31.121 27.8855 31.1413 27.4994 31.1413C25.902 31.1413 24.3831 30.7986 23.0122 30.1832C22.9818 30.1696 22.9515 30.1556 22.9212 30.1417C20.2743 28.9244 18.1899 26.6859 17.1767 23.9335ZM32.8493 28.9048C32.7332 29.069 32.5602 29.178 32.362 29.212L29.7327 29.6629C29.6902 29.6702 29.6469 29.674 29.6041 29.674C29.2374 29.674 28.9262 29.4109 28.864 29.0483C28.7939 28.6393 29.0695 28.2495 29.4786 28.1793L32.1076 27.7284C32.1507 27.7211 32.1938 27.7174 32.2365 27.7174C32.3907 27.7174 32.5409 27.7648 32.6693 27.8556C32.8335 27.9716 32.9426 28.1448 32.9766 28.3429C33.0106 28.5411 32.9654 28.7406 32.8493 28.9048ZM23.5554 40.8488C22.9595 41.0517 22.3063 40.8769 21.8915 40.4036L18.151 36.1348L20.9252 35.2698C20.9411 35.2648 20.9585 35.2689 20.9708 35.2804L25.9763 40.0242L23.5554 40.8488ZM22.7769 34.7701C23.2771 34.2331 23.5714 33.517 23.5714 32.7607V32.1296C23.6239 32.1468 23.677 32.1616 23.7297 32.1782C23.7562 32.1866 23.783 32.1945 23.8095 32.2027C23.9691 32.2517 24.1296 32.2973 24.291 32.3397C24.32 32.3474 24.3489 32.3552 24.378 32.3626C24.4679 32.3856 24.5579 32.4078 24.6482 32.4288C24.6717 32.4343 24.6952 32.4391 24.7187 32.4444C24.874 32.4794 25.0299 32.5115 25.1865 32.5406C25.2409 32.5507 25.2954 32.5605 25.3499 32.5699C25.4258 32.5829 25.5016 32.5962 25.5778 32.6078C25.6924 32.6254 25.8076 32.6412 25.9232 32.6557C25.9838 32.6632 26.0445 32.6698 26.1052 32.6765C26.203 32.6874 26.301 32.6969 26.3994 32.7055C26.4408 32.7091 26.4819 32.7134 26.5234 32.7166C26.6614 32.7272 26.8002 32.7348 26.9393 32.741C26.9785 32.7427 27.0179 32.7441 27.0571 32.7455C27.204 32.7505 27.3515 32.7541 27.4998 32.7541C27.648 32.7541 27.7954 32.7505 27.9424 32.7455C27.9818 32.7441 28.021 32.7427 28.0602 32.741C28.1994 32.7348 28.3382 32.7271 28.4761 32.7166C28.5175 32.7135 28.5587 32.7091 28.6001 32.7055C28.6985 32.6969 28.7966 32.6874 28.8943 32.6765C28.955 32.6698 29.0157 32.6632 29.0763 32.6557C29.1919 32.6412 29.3071 32.6254 29.4218 32.6078C29.4979 32.5962 29.5738 32.5829 29.6496 32.5699C29.7042 32.5605 29.7586 32.5507 29.813 32.5406C29.9696 32.5115 30.1256 32.4794 30.2808 32.4444C30.3042 32.4391 30.3279 32.4343 30.3513 32.4288C30.4416 32.4078 30.5317 32.3856 30.6216 32.3626C30.6507 32.3552 30.6796 32.3474 30.7086 32.3397C30.8699 32.2973 31.0303 32.2515 31.19 32.2027C31.2167 32.1945 31.2433 32.1866 31.2698 32.1782C31.3225 32.1616 31.3755 32.1469 31.4281 32.1296V32.7607C31.4281 33.5171 31.7224 34.2332 32.2226 34.7701L27.4999 39.2458L22.7769 34.7701ZM33.3488 40.1293C32.7878 40.7694 31.9047 41.0056 31.0994 40.7312L29.0235 40.0242L34.0291 35.2804C34.0412 35.269 34.0586 35.2647 34.0747 35.2699L36.8488 36.1349L33.3488 40.1293Z" fill="#F8FBFF"/>
</g>
</g>
<g id="Group_3">
<g id="Group_4">
<path id="Vector_2" d="M20.4498 44.792H14.3751C13.5937 44.792 12.958 45.4277 12.958 46.2092V48.8998C12.958 49.6812 13.5937 50.3169 14.3751 50.3169H20.4498C21.2312 50.3169 21.867 49.6813 21.867 48.8998V46.2092C21.867 45.4278 21.2311 44.792 20.4498 44.792ZM20.254 48.7041H14.5706V46.4048H20.254V48.7041Z" fill="#F8FBFF"/>
</g>
</g>
</g>
</svg>
