<svg width="25" height="25" viewBox="0 0 25 25" fill="none" xmlns="http://www.w3.org/2000/svg">
<g id="pet 1" clip-path="url(#clip0_1_5376)">
<path id="Vector" d="M16.5773 1.41602H8.42266C3.77846 1.41602 0 5.19447 0 9.83868V11.7804C0 14.2752 1.87016 16.3412 4.282 16.6506C4.9511 20.5814 8.38108 23.5836 12.4994 23.5836C16.618 23.5836 20.0478 20.5814 20.7169 16.6508C23.1295 16.3418 25 14.2756 25 11.7804V9.83868C25 5.19447 21.2215 1.41602 16.5773 1.41602V1.41602ZM23.5062 11.7804C23.5062 13.4079 22.3618 14.7724 20.8357 15.1136V8.04958C20.8357 7.63702 20.5011 7.30247 20.0888 7.30247C19.6762 7.30247 19.3417 7.63702 19.3417 8.04958V15.2475C19.3417 19.0205 16.2724 22.0898 12.4994 22.0898C8.7265 22.0898 5.6572 19.0203 5.6572 15.2475V8.04958C5.6572 7.63702 5.32284 7.30247 4.91028 7.30247C4.49772 7.30247 4.16336 7.63702 4.16336 8.04958V15.1134C2.63767 14.7718 1.49384 13.4075 1.49384 11.7804V9.83868C1.49384 6.01807 4.60205 2.90985 8.42266 2.90985H16.5773C20.3979 2.90985 23.5062 6.01807 23.5062 9.83868V11.7804Z" fill="#555555"/>
<path id="Vector_2" d="M13.7643 15.1968H11.2357C10.6845 15.1968 10.1741 15.4957 9.90379 15.9771C9.63142 16.4617 9.64096 17.0337 9.92916 17.507C10.4804 18.4118 11.4413 18.9522 12.4999 18.9522C13.5585 18.9522 14.5194 18.4118 15.0706 17.507C15.3588 17.0337 15.3683 16.4617 15.096 15.9771C14.8257 15.4957 14.3153 15.1968 13.7643 15.1968ZM13.7948 16.7299C13.5171 17.1858 13.033 17.4581 12.4999 17.4581C11.967 17.4581 11.4829 17.1858 11.2052 16.7299C11.2021 16.7249 11.2015 16.7227 11.2015 16.7227C11.2014 16.7196 11.2044 16.7085 11.213 16.6992C11.2195 16.6923 11.2242 16.6906 11.2357 16.6906H13.7643C13.7757 16.6906 13.7805 16.6923 13.787 16.6992C13.7955 16.7085 13.7986 16.7196 13.7984 16.7225C13.7984 16.7225 13.7978 16.7248 13.7948 16.7299Z" fill="#555555"/>
<path id="Vector_3" d="M9.89813 10.3919C9.89813 9.97938 9.56377 9.64502 9.15121 9.64502C8.73866 9.64502 8.4043 9.97938 8.4043 10.3919V11.7044C8.4043 12.1168 8.73866 12.4513 9.15121 12.4513C9.56377 12.4513 9.89813 12.1168 9.89813 11.7044V10.3919Z" fill="#555555"/>
<path id="Vector_4" d="M15.8477 9.64502C15.4351 9.64502 15.1006 9.97938 15.1006 10.3919V11.7044C15.1006 12.1168 15.4351 12.4513 15.8477 12.4513C16.2601 12.4513 16.5946 12.1168 16.5946 11.7044V10.3919C16.5946 9.97938 16.2601 9.64502 15.8477 9.64502Z" fill="#555555"/>
</g>
<defs>
<clipPath id="clip0_1_5376">
<rect width="25" height="25" fill="white"/>
</clipPath>
</defs>
</svg>
