<svg width="56" height="56" viewBox="0 0 56 56" fill="none" xmlns="http://www.w3.org/2000/svg">
<g id="exchange (3) 1" clip-path="url(#clip0_1_4937)">
<path id="Vector" d="M55.4326 12.1113L33.6225 0.135147C33.2948 -0.0447235 32.8975 -0.0447235 32.5698 0.135147L24.3491 4.64901C24.1757 4.69472 24.0137 4.78188 23.8796 4.90706L10.7601 12.1113C10.4102 12.3031 10.1928 12.6706 10.1928 13.07V27.5545C7.97963 28.2467 5.95149 29.4673 4.26515 31.1541C-0.130362 35.5492 -1.25103 42.2527 1.47651 47.8346C1.7414 48.3772 2.39637 48.6024 2.93897 48.3371C3.482 48.0718 3.70674 47.4168 3.44184 46.8742C1.12446 42.1313 2.07679 36.4357 5.81178 32.7007C8.14753 30.365 11.2528 29.0785 14.5558 29.0785C17.8588 29.0785 20.9641 30.365 23.2998 32.7007C25.6351 35.036 26.9216 38.1413 26.9216 41.4443C26.9216 44.7474 25.6351 47.8526 23.2994 50.1883C19.5644 53.9233 13.8688 54.8757 9.12593 52.5583C8.58332 52.293 7.92836 52.5181 7.66346 53.0607C7.39814 53.6038 7.62288 54.2587 8.1659 54.5236C10.1992 55.5174 12.3807 56.0002 14.5464 56.0002C18.3245 55.9997 22.0523 54.5292 24.8465 51.735C26.1278 50.4537 27.1403 48.9754 27.8568 47.3685L32.5698 49.9563C32.7338 50.0465 32.915 50.0914 33.0961 50.0914C33.2773 50.0914 33.4589 50.0465 33.6225 49.9563L55.4326 37.9806C55.7825 37.7884 56 37.4209 56 37.0219V29.4208C56 28.8166 55.5103 28.327 54.9062 28.327C54.3021 28.327 53.8125 28.8166 53.8125 29.4208V36.3746L34.1933 47.1476V25.6913L40.6682 22.1358V27.772C40.6682 28.1591 40.8725 28.5171 41.2053 28.7137C41.377 28.8149 41.5693 28.8658 41.762 28.8658C41.9431 28.8658 42.1247 28.8209 42.2892 28.7303L46.9628 26.1579C47.3123 25.9656 47.5289 25.5986 47.5289 25.2V18.3683L53.8125 14.9183V20.6712C53.8125 21.2753 54.3021 21.7649 54.9062 21.7649C55.5103 21.7649 56 21.2753 56 20.6712V13.07C56 12.671 55.7825 12.3031 55.4326 12.1113ZM33.0961 2.34145L52.6337 13.07L46.4707 16.4543L26.9331 5.72567L33.0961 2.34145ZM33.0961 23.7982L13.5586 13.07L19.9476 9.56148L39.4856 20.2896L33.0961 23.7982ZM41.7577 19.0421L22.2202 8.31392L24.6606 6.97365L44.1986 17.7018L41.7577 19.0421ZM24.8465 31.1541C22.0975 28.4052 18.4429 26.8915 14.5558 26.8915C13.8205 26.8915 13.0942 26.9457 12.3803 27.0521V14.9183L32.0062 25.6952V47.1515L28.5998 45.281C28.9352 44.0462 29.1087 42.7585 29.1087 41.4443C29.1087 37.5572 27.5949 33.9026 24.8465 31.1541ZM45.3419 24.5536L42.8557 25.922V20.9348L45.3419 19.5697V24.5536Z" fill="#F8FBFF"/>
<path id="Vector_2" d="M54.9063 23.9468C54.6187 23.9468 54.3363 24.0638 54.1329 24.2672C53.9296 24.4706 53.8125 24.7526 53.8125 25.0405C53.8125 25.3281 53.9296 25.61 54.1329 25.8134C54.3363 26.0172 54.6187 26.1339 54.9063 26.1339C55.1938 26.1339 55.4762 26.0172 55.6796 25.8134C55.8829 25.61 56 25.3281 56 25.0405C56 24.7526 55.8829 24.4706 55.6796 24.2672C55.4762 24.0638 55.1938 23.9468 54.9063 23.9468Z" fill="#F8FBFF"/>
<path id="Vector_3" d="M10.8786 42.538C11.1584 42.538 11.4387 42.4312 11.6519 42.218C12.0791 41.7908 12.0791 41.0982 11.6519 40.671L10.8944 39.913H17.3586C18.9266 39.913 20.2024 41.1888 20.2024 42.7568C20.2024 44.3248 18.9266 45.6005 17.3586 45.6005H13.5284C12.9242 45.6005 12.4346 46.0902 12.4346 46.6943C12.4346 47.298 12.9242 47.7876 13.5284 47.7876H17.3586C20.1327 47.7876 22.3899 45.5309 22.3899 42.7568C22.3899 39.9827 20.1327 37.7259 17.3586 37.7259H10.8944L11.6519 36.968C12.0791 36.5408 12.0791 35.8482 11.6519 35.4209C11.2251 34.9941 10.5325 34.9941 10.1053 35.4209L7.48027 38.0459C7.05345 38.4732 7.05345 39.1658 7.48027 39.593L10.1053 42.2176C10.3189 42.4312 10.5987 42.538 10.8786 42.538Z" fill="#F8FBFF"/>
<path id="Vector_4" d="M5.03974 52.0571C4.72871 52.0571 4.41981 51.9246 4.20405 51.6679L4.20191 51.6653C3.81312 51.203 3.87294 50.5134 4.33522 50.1246C4.7975 49.7354 5.4875 49.7952 5.87629 50.2575C6.26466 50.7202 6.20613 51.4111 5.74385 51.7999C5.53834 51.9725 5.2884 52.0571 5.03974 52.0571Z" fill="#F8FBFF"/>
</g>
<defs>
<clipPath id="clip0_1_4937">
<rect width="56" height="56" fill="white"/>
</clipPath>
</defs>
</svg>
