<svg width="21" height="21" viewBox="0 0 21 21" fill="none" xmlns="http://www.w3.org/2000/svg">
<g id="facebook 1">
<g id="_x30_1._Facebook">
<path id="Icon_11_" d="M8.09332 11.0577C8.03323 11.0577 6.7111 11.0577 6.11013 11.0577C5.78961 11.0577 5.68945 10.9375 5.68945 10.6371C5.68945 9.83577 5.68945 9.01445 5.68945 8.21316C5.68945 7.89265 5.80965 7.79248 6.11013 7.79248H8.09332C8.09332 7.73239 8.09332 6.57052 8.09332 6.02965C8.09332 5.22835 8.23355 4.46713 8.63419 3.766C9.05487 3.04484 9.65584 2.56406 10.4171 2.28361C10.9179 2.10332 11.4187 2.02319 11.9595 2.02319H13.9227C14.2032 2.02319 14.3234 2.14339 14.3234 2.42384V4.70752C14.3234 4.98797 14.2032 5.10816 13.9227 5.10816C13.3818 5.10816 12.841 5.10816 12.3001 5.12819C11.7592 5.12819 11.4788 5.38861 11.4788 5.94952C11.4587 6.55048 11.4788 7.13142 11.4788 7.75242H13.8025C14.123 7.75242 14.2432 7.87261 14.2432 8.19313V10.617C14.2432 10.9375 14.1431 11.0377 13.8025 11.0377C13.0814 11.0377 11.5389 11.0377 11.4788 11.0377V17.5682C11.4788 17.9088 11.3786 18.029 11.018 18.029C10.1767 18.029 9.35536 18.029 8.514 18.029C8.21352 18.029 8.09332 17.9088 8.09332 17.6083C8.09332 15.5049 8.09332 11.1178 8.09332 11.0577Z" fill="#7F4D4F"/>
</g>
</g>
</svg>
