<svg width="46" height="39" viewBox="0 0 46 39" fill="none" xmlns="http://www.w3.org/2000/svg">
<g id="Frame" clip-path="url(#clip0_1_5430)">
<g id="Group">
<path id="Vector" d="M43.4831 12.9032C44.2839 9.19213 45.2448 0.992306 40.2793 0.150007C36.7794 -0.443643 29.5764 0.692994 27.6093 4.20361C26.1134 3.66404 24.5302 3.2087 23 3.21212C21.4694 3.2087 19.8862 3.66404 18.3906 4.20361C16.4232 0.692994 9.22047 -0.443954 5.72057 0.150007C0.755101 0.991995 1.71661 9.19182 2.51678 12.9032C-1.3621 17.6123 0.321405 24.4225 0.61408 30.5446C0.940525 37.374 4.65431 39.5165 11.2545 38.8995C14.9145 38.557 18.5636 36.8714 18.5729 32.8791C18.5751 31.7462 18.5495 21.9301 18.466 21.9401C19.9772 21.9301 21.4887 21.9457 23.0003 21.9718C24.5115 21.946 26.023 21.9304 27.5345 21.9401C27.4507 21.9301 27.4251 31.7462 27.4273 32.8791C27.4364 36.8714 31.0857 38.5573 34.7457 38.8995C41.3456 39.5165 45.0594 37.374 45.3858 30.5446C45.6782 24.4225 47.362 17.6123 43.4831 12.9032ZM34.6081 4.28287C36.1844 3.86514 37.8223 3.59815 39.456 3.65876C40.7624 3.70724 40.5498 7.63341 40.2299 10.2349C37.3295 8.45613 34.2773 6.89275 31.127 5.592C31.4431 5.44841 31.9541 5.13946 32.1204 5.06953C32.9228 4.73572 33.7692 4.50479 34.6081 4.28287ZM6.54356 3.65907C8.1539 3.5077 9.84084 3.90772 11.3918 4.28318C12.2392 4.488 13.0659 4.76276 13.8798 5.06984C14.0487 5.13325 14.5593 5.44561 14.8748 5.59169C11.7195 6.89462 8.66295 8.46017 5.75934 10.2414C5.42664 7.65828 5.20432 3.78495 6.54356 3.65907ZM42.39 21.3707C42.162 24.9369 42.288 28.9091 41.5786 32.4057C40.8556 35.9639 37.3073 35.9204 34.1816 35.1924C32.8927 34.8925 31.0573 34.1571 31.056 33.4743C31.0516 31.4621 31.047 29.4511 31.0426 27.4389C31.0348 24.1624 32.0529 19.4004 28.1974 18.4602C28.0011 18.3856 27.7834 18.3356 27.5342 18.334C26.1765 18.3256 24.6103 18.2156 23 18.1488C21.3896 18.2156 19.8231 18.3256 18.4657 18.334C18.2162 18.3353 17.9988 18.3856 17.8025 18.4602C13.947 19.4001 14.9652 24.1621 14.9573 27.4389C14.953 29.4508 14.9483 31.4621 14.9439 33.4743C14.9423 34.1571 13.1072 34.8925 11.8183 35.1924C8.69235 35.9204 5.14397 35.9639 4.42104 32.4057C3.71187 28.9091 3.83788 24.9369 3.60993 21.3707C3.306 16.6314 5.56329 14.475 9.44717 12.2393C12.6641 10.3872 16.084 8.83035 19.6001 7.63217C20.7833 7.22936 21.9081 7.08359 23 7.11529C24.0915 7.08359 25.2166 7.22936 26.3998 7.63217C29.9157 8.83004 33.3355 10.3872 36.5531 12.2393C40.4366 14.475 42.6936 16.6314 42.39 21.3707Z" fill="#7F4D4F"/>
<path id="Vector_2" d="M9.98134 27.3564C9.03452 27.3564 8.26562 28.1204 8.26562 29.0619C8.26562 30.0033 9.03421 30.7676 9.98134 30.7676C10.9288 30.7676 11.6974 30.0036 11.6974 29.0619C11.6974 28.1204 10.9288 27.3564 9.98134 27.3564Z" fill="#7F4D4F"/>
<path id="Vector_3" d="M36.0178 27.3564C35.0707 27.3564 34.3018 28.1204 34.3018 29.0619C34.3018 30.0033 35.0707 30.7676 36.0178 30.7676C36.9646 30.7676 37.7332 30.0036 37.7332 29.0619C37.7332 28.1204 36.9646 27.3564 36.0178 27.3564Z" fill="#7F4D4F"/>
<path id="Vector_4" d="M24.5725 34.6785C24.5284 34.9461 24.3789 35.053 24.1131 35.0605C23.8108 35.0683 23.7094 34.93 23.5603 34.7068C23.5447 34.6835 23.5243 34.6701 23.5071 34.6505C23.5243 34.1215 23.5775 33.6 23.5697 33.0753C23.9658 32.8917 24.2723 32.5367 24.6706 32.1768C25.3329 31.5782 25.2097 30.7219 22.9993 30.6367C20.7889 30.7219 20.6657 31.5782 21.3283 32.1768C21.7495 32.5569 22.0663 32.9352 22.4968 33.1086C22.5147 33.6488 22.4359 34.1952 22.4177 34.7354C22.2717 34.9514 22.181 35.0415 21.8855 35.0608C21.6204 35.077 21.4669 34.929 21.4262 34.6788C21.3133 33.9913 20.2646 34.2844 20.3765 34.9663C20.4913 35.6647 21.0973 36.0579 21.7564 36.1387C22.2595 36.1999 22.6591 36.0197 22.9821 35.7213C23.0541 35.7928 23.1297 35.8605 23.2238 35.9205C23.5115 36.1036 23.9105 36.1471 24.2423 36.1387C24.8995 36.121 25.5149 35.6184 25.6218 34.9663C25.7341 34.2844 24.686 33.9913 24.5725 34.6785Z" fill="#7F4D4F"/>
</g>
</g>
<defs>
<clipPath id="clip0_1_5430">
<rect width="46" height="39" fill="white"/>
</clipPath>
</defs>
</svg>
