<svg width="66" height="66" viewBox="0 0 66 66" fill="none" xmlns="http://www.w3.org/2000/svg">
<g id="pet (1) 1" clip-path="url(#clip0_1_2097)">
<g id="Group">
<path id="Vector" d="M16.8379 58.9561C16.6347 59.45 16.8702 60.015 17.3639 60.2181C20.5007 61.5091 24.1297 61.6156 27.4227 60.3722C31.019 59.0141 34.9805 59.0141 38.577 60.3722C40.3628 61.0462 42.247 61.3329 44.1776 61.2255C51.0655 60.8396 56.5291 55.448 57.0109 48.5783C57.2852 44.6675 55.8858 40.7827 53.031 37.9279L45.6712 30.4004C38.6949 23.2648 27.2684 23.3026 20.3284 30.4004C12.8961 38.002 13.0706 37.8052 12.9567 37.9403C7.5315 43.3616 7.64881 52.223 13.1567 57.4834C13.5427 57.8521 14.1547 57.8382 14.5236 57.452C14.8923 57.0659 14.8784 56.454 14.4922 56.0851C9.77121 51.576 9.657 43.95 14.3423 39.2893C14.6674 38.9656 13.7271 39.9067 15.203 38.4015C16.1034 37.4828 17.9464 35.6026 21.7111 31.752C27.9108 25.4112 38.0905 25.4124 44.2889 31.752C51.817 39.4518 51.6444 39.2759 51.6577 39.2893C54.0735 41.6925 55.3216 45.029 55.0821 48.4431C54.6712 54.3009 49.9369 58.9663 44.0695 59.295C42.4105 59.3878 40.792 59.1419 39.2599 58.5632C35.2232 57.0391 30.7765 57.0391 26.7395 58.5632C23.912 59.6307 20.7899 59.5372 18.0997 58.4301C17.606 58.2268 17.041 58.4624 16.8379 58.9561Z" fill="#7F4D4F"/>
<path id="Vector_2" d="M6.12525 34.4511C7.95182 35.2253 9.96182 35.301 11.7001 34.2973C14.9527 32.4193 15.6443 27.5054 13.2414 23.3432C12.102 21.3698 10.4393 19.8441 8.55909 19.0471C4.48959 17.3223 0.608546 19.5312 0.0635399 23.952C-0.452978 28.1438 2.23454 32.8017 6.12525 34.4511ZM1.98266 24.1884C2.25774 21.9566 3.69206 20.3936 5.8106 20.3936C7.63278 20.3936 10.0198 21.6302 11.5669 24.31C13.4367 27.5487 13.0627 31.2779 10.7333 32.6227C9.65026 33.2481 8.28156 33.2649 6.87985 32.6708C3.77907 31.3563 1.57185 27.5202 1.98266 24.1884Z" fill="#7F4D4F"/>
<path id="Vector_3" d="M57.4407 19.0471C55.5605 19.8443 53.8977 21.37 52.7584 23.3433C50.3555 27.5053 51.047 32.4193 54.2997 34.2974C55.1579 34.7929 56.1166 35.0413 57.1218 35.0413C59.642 35.0413 62.6676 33.4273 64.5569 30.1551C65.6963 28.1817 66.1862 25.9788 65.9363 23.9521C65.3955 19.5658 61.5416 17.3084 57.4407 19.0471ZM59.1199 32.6709C57.7182 33.2653 56.3498 33.2482 55.2664 32.6228C52.937 31.2778 52.5631 27.5487 54.4328 24.31C55.3634 22.6982 56.6996 21.4614 58.1953 20.8273C61.0923 19.5994 63.6315 21.0613 64.0171 24.1885C64.428 27.5209 62.2197 31.3568 59.1199 32.6709Z" fill="#7F4D4F"/>
<path id="Vector_4" d="M25.8428 21.4009C25.3715 21.6519 25.1931 22.2375 25.4441 22.7088C25.695 23.1799 26.2807 23.3586 26.752 23.1075C29.9889 21.383 31.4598 16.8523 30.2493 12.3345C28.8713 7.1917 24.4922 3.88016 20.4856 4.95419C18.4946 5.48772 16.9094 6.98945 16.0219 9.18314C13.8941 14.4423 16.6474 21.4419 21.5379 23.349C22.0329 23.5425 22.5952 23.2989 22.7898 22.7995C22.9838 22.3022 22.7379 21.7416 22.2403 21.5476C18.3389 20.026 16.0957 14.1559 17.8143 9.90835C18.4686 8.29061 19.5951 7.19454 20.986 6.82188C23.9612 6.02512 27.2793 8.72179 28.3816 12.835C29.3459 16.4335 28.2543 20.1163 25.8428 21.4009Z" fill="#7F4D4F"/>
<path id="Vector_5" d="M45.5143 4.95416C41.5072 3.88065 37.1284 7.19167 35.7506 12.3344C34.3726 17.4773 36.5105 22.5345 40.516 23.6077C42.6258 24.1734 44.7473 23.5424 46.4963 22.1771C50.1883 19.2955 51.7356 13.5269 49.9781 9.18298C49.0905 6.98942 47.5052 5.48756 45.5143 4.95416ZM45.3065 20.653C43.9307 21.7268 42.407 22.1123 41.0164 21.7402C38.0405 20.9428 36.5161 16.9479 37.6181 12.835C38.7203 8.72189 42.0377 6.02471 45.0137 6.82185C46.4046 7.19464 47.5311 8.29071 48.1854 9.90832C49.6192 13.4519 48.3195 18.3013 45.3065 20.653Z" fill="#7F4D4F"/>
<path id="Vector_6" d="M41.6731 40.8873C42.0508 41.2647 42.6629 41.2647 43.0404 40.8873L44.7849 39.1428C45.1624 38.7651 45.1624 38.1531 44.7849 37.7756L40.7314 33.722C40.3537 33.3446 39.7416 33.3446 39.3641 33.722L30.6507 42.4356L26.6358 38.4206C26.2583 38.0433 25.6463 38.0432 25.2686 38.4206L21.2151 42.4744C20.8375 42.8519 20.8375 43.464 21.2151 43.8415L29.9671 52.5936C30.3447 52.9709 30.9567 52.971 31.3344 52.5936L39.7367 44.1911C40.1143 43.8134 40.1143 43.2014 39.7367 42.8238C39.359 42.4464 38.747 42.4464 38.3695 42.8238L30.6508 50.5427L23.2659 43.1578L25.9523 40.4713L29.9671 44.4863C30.3448 44.8637 30.9568 44.8637 31.3344 44.4863L40.0478 35.7728L42.7341 38.4591L41.6733 39.5199C41.2956 39.8977 41.2956 40.5097 41.6731 40.8873Z" fill="#7F4D4F"/>
</g>
</g>
<defs>
<clipPath id="clip0_1_2097">
<rect width="66" height="66" fill="white"/>
</clipPath>
</defs>
</svg>
