<svg width="14" height="14" viewBox="0 0 14 14" fill="none" xmlns="http://www.w3.org/2000/svg">
<g id="linkedin 1" clip-path="url(#clip0_1_4866)">
<path id="Vector" d="M13.9316 13.9354V13.9348H13.9351V8.82396C13.9351 6.3237 13.3968 4.39771 10.4739 4.39771C9.06871 4.39771 8.12574 5.1688 7.74077 5.89983H7.70013V4.63112H4.92871V13.9348H7.81452V9.32796C7.81452 8.115 8.04445 6.94209 9.54658 6.94209C11.0266 6.94209 11.0487 8.32635 11.0487 9.40577V13.9354H13.9316Z" fill="#7F4D4F"/>
<path id="Vector_2" d="M0.229492 4.63184H3.11878V13.9355H0.229492V4.63184Z" fill="#7F4D4F"/>
<path id="Vector_3" d="M1.67342 0C0.749613 0 0 0.749613 0 1.67342C0 2.59723 0.749613 3.36252 1.67342 3.36252C2.59723 3.36252 3.34684 2.59723 3.34684 1.67342C3.34626 0.749613 2.59664 0 1.67342 0V0Z" fill="#7F4D4F"/>
</g>
<defs>
<clipPath id="clip0_1_4866">
<rect width="13.9355" height="13.9355" fill="white"/>
</clipPath>
</defs>
</svg>
