<svg width="42" height="42" viewBox="0 0 42 42" fill="none" xmlns="http://www.w3.org/2000/svg">
<g id="placeholder 1">
<g id="Group">
<g id="Group_2">
<path id="Vector" d="M20.9876 8.36914C16.1414 8.36914 12.2061 12.3131 12.2061 17.1506C12.2061 21.9882 16.1414 25.9407 20.9876 25.9407C25.8337 25.9407 29.7691 21.9968 29.7691 17.1592C29.7691 12.3217 25.8337 8.36914 20.9876 8.36914ZM20.9876 23.8356C17.3014 23.8356 14.3112 20.8368 14.3112 17.1592C14.3112 13.4817 17.31 10.4829 20.9876 10.4829C24.6651 10.4829 27.6639 13.4817 27.6639 17.1592C27.6639 20.8368 24.6737 23.8356 20.9876 23.8356Z" fill="#7F4D4F"/>
<path id="Vector_2" d="M20.9873 0C20.7896 0 20.5834 0 20.3858 0.00859247C11.9136 0.300737 4.91074 6.88257 4.10304 15.3118C3.94838 16.9444 4.02571 18.5855 4.32645 20.1493C4.32645 20.1493 4.35223 20.347 4.44674 20.7164C4.70452 21.8764 5.09118 23.002 5.58095 24.0503C7.32522 28.1833 11.1489 34.5503 19.4492 41.4415C19.8874 41.8024 20.4373 42 21.0044 42C21.5715 42 22.1215 41.8024 22.5597 41.4415C30.8514 34.5589 34.6751 28.1833 36.4108 24.0847C36.9091 23.0106 37.2958 21.8764 37.5536 20.725C37.6051 20.5188 37.6395 20.347 37.6653 20.1837C37.8715 19.1268 37.9746 18.0442 37.9746 16.9615C37.9574 7.61293 30.3445 0 20.9873 0ZM35.5773 19.8228C35.5773 19.84 35.5515 19.9861 35.4914 20.2525C35.2594 21.2664 34.9243 22.2545 34.4774 23.234C32.8191 27.1522 29.1759 33.2099 21.2107 39.8175C21.1333 39.8777 21.056 39.8948 20.9959 39.8948C20.9443 39.8948 20.8584 39.8777 20.781 39.8175C12.8158 33.2013 9.16401 27.1436 7.49707 23.1997C7.05886 22.2545 6.72375 21.2664 6.49175 20.2439C6.4402 20.0205 6.41442 19.883 6.40583 19.84C6.40583 19.8228 6.39724 19.8056 6.39724 19.7885C6.13087 18.3879 6.06213 16.9444 6.19961 15.518C6.91278 8.13707 13.0392 2.37152 20.4631 2.11375C28.8923 1.8216 35.8522 8.59247 35.8522 16.9701C35.8522 17.9153 35.7577 18.8605 35.5773 19.8228Z" fill="#7F4D4F"/>
</g>
</g>
</g>
</svg>
