<svg width="64" height="64" viewBox="0 0 64 64" fill="none" xmlns="http://www.w3.org/2000/svg">
<g id="mouse-toy 1" clip-path="url(#clip0_1_2087)">
<g id="Group">
<path id="Vector" d="M60.4697 35.0594L57.893 32.4826C56.2506 22.8895 47.8516 15.4674 37.6071 15.5461V13.2895H38.4679C42.1319 13.2895 45.1126 10.3086 45.1126 6.64475C45.1126 2.98088 42.1319 0 38.4679 0C36.6445 0 34.9323 0.740125 33.692 2.02513C32.4518 0.740125 30.7395 0 28.916 0C25.2521 0 22.2714 2.98088 22.2714 6.64475C22.2714 7.79175 22.5686 8.92275 23.131 9.91537C23.3861 10.3659 23.9584 10.5243 24.4088 10.269C24.8593 10.0139 25.0176 9.44175 24.7624 8.99125C24.3594 8.27987 24.1464 7.46838 24.1464 6.64475C24.1464 4.01475 26.286 1.875 28.916 1.875C30.5291 1.875 32.0215 2.68263 32.9079 4.03525C33.2776 4.59925 34.106 4.6 34.4762 4.03525C35.3625 2.68263 36.8549 1.875 38.4679 1.875C41.0979 1.875 43.2376 4.01475 43.2376 6.64475C43.2376 9.27475 41.0979 11.4145 38.4679 11.4145H36.6696C36.1517 11.4145 35.7321 11.8341 35.7321 12.352V15.6392C34.2279 15.7814 32.8923 16.0775 31.6516 16.4841V12.352C31.6516 11.8341 31.232 11.4145 30.7141 11.4145C28.8452 11.4145 28.1458 11.4992 27.0602 11.0402C26.5839 10.8387 26.0335 11.0617 25.8318 11.5387C25.6303 12.0155 25.8534 12.5656 26.3302 12.7673C27.7262 13.3573 28.7739 13.2895 29.7766 13.2895V17.2043C27.8854 18.0346 26.1476 19.0939 24.2013 20.2219C22.9977 19.6181 21.6639 19.301 20.3106 19.301C18.1546 19.301 16.0861 20.1065 14.4986 21.5364C12.911 20.1065 10.8426 19.301 8.68662 19.301C3.89687 19.301 0 23.1979 0 27.9877C0 30.6669 1.21563 33.151 3.29037 34.7928C2.27787 36.682 1.67712 38.7941 1.56988 40.9852C0.619125 41.461 0 42.2957 0 43.2656C0 44.4191 0.92825 45.7192 2.26575 46.2229C4.14425 51.9837 9.56575 56.3235 16.1776 56.3235H37.7967C47.3655 56.3235 55.4145 49.6973 57.5998 40.7928C58.5235 42.6649 58.4365 44.8395 57.4725 46.6097C53.8138 53.3247 47.1012 57.6791 39.5164 58.2578C38.0805 58.3673 36.8592 59.5546 36.8592 61.1441C36.8592 62.719 38.1439 64.0001 39.723 64.0001C41.0186 64.0001 44.796 63.4806 48.4616 61.9735C48.9405 61.7766 49.1691 61.2289 48.9723 60.75C48.7754 60.271 48.2274 60.0426 47.7487 60.2394C45.2149 61.281 42.5411 61.9144 39.8019 62.1222C38.4801 62.219 38.3322 60.2285 39.6589 60.1275C43.7304 59.8169 47.688 58.464 51.1041 56.2154C54.4399 54.0196 57.2113 51.0082 59.1191 47.5067C60.7368 44.5364 60.4044 40.788 58.0648 38.1567C58.162 37.2639 58.2031 36.3621 58.1799 35.4216L59.1436 36.3854C62.4234 39.6649 62.9815 44.5769 60.8961 48.4199C58.5915 52.6664 55.1665 56.1989 50.9916 58.6357C50.5444 58.8968 50.3935 59.4709 50.6545 59.918C50.9155 60.3651 51.4895 60.5161 51.9367 60.2551C56.4081 57.6454 60.076 53.862 62.5441 49.3143C63.4966 47.5592 64 45.5772 64 43.5827C64 40.3629 62.7463 37.336 60.4697 35.0594ZM1.875 27.9877C1.875 24.2317 4.93075 21.176 8.68675 21.176C10.3793 21.176 12.0032 21.8092 13.2491 22.9338C12.3049 24.2515 11.7485 25.8074 11.644 27.4293L8.9075 28.9996C7.05788 30.061 5.4935 31.5003 4.28888 33.1866C2.76375 31.8998 1.875 30.0151 1.875 27.9877ZM3.4375 42.4384C4.39138 42.4384 5 42.9284 5 43.2656C5 43.6985 4.3245 44.5634 3.4375 44.5634C2.5505 44.5634 1.875 43.6985 1.875 43.2656C1.875 42.9284 2.48362 42.4384 3.4375 42.4384ZM37.7969 54.4485H16.1777C10.9085 54.4485 6.18075 51.1612 4.29338 46.3247C5.7985 45.9206 6.875 44.5079 6.875 43.2656C6.875 41.7611 5.38613 40.5807 3.47813 40.5641C3.84763 36.4464 6.21675 32.7052 9.84062 30.6259L11.7622 29.5233C11.939 30.5058 12.2831 31.4551 12.7845 32.3239C13.0434 32.7723 13.6166 32.9259 14.0651 32.6673C14.5136 32.4084 14.6672 31.8351 14.4085 31.3866C11.8204 26.9023 15.0435 21.176 20.3109 21.176C25.5446 21.176 28.8236 26.8755 26.2094 31.3929C25.95 31.841 26.103 32.4146 26.5511 32.6739C27 32.9335 27.5732 32.7796 27.8321 32.3321C29.946 28.6793 29.1053 24.0835 25.9419 21.3786C29.6645 19.215 32.6526 17.419 37.7969 17.419C48.0059 17.419 56.3115 25.7246 56.3115 35.9336C56.3115 46.1429 48.0059 54.4485 37.7969 54.4485Z" fill="#7F4D4F"/>
<path id="Vector_2" d="M28.916 9.45728C30.4668 9.45728 31.7285 8.19553 31.7285 6.64478C31.7285 5.09403 30.4668 3.83228 28.916 3.83228C27.3653 3.83228 26.1035 5.09403 26.1035 6.64478C26.1035 8.19553 27.3653 9.45728 28.916 9.45728ZM28.916 5.70728C29.433 5.70728 29.8535 6.12778 29.8535 6.64478C29.8535 7.16178 29.433 7.58228 28.916 7.58228C28.399 7.58228 27.9785 7.16178 27.9785 6.64478C27.9785 6.12778 28.399 5.70728 28.916 5.70728Z" fill="#7F4D4F"/>
<path id="Vector_3" d="M38.468 9.45728C40.0188 9.45728 41.2804 8.19553 41.2804 6.64478C41.2804 5.09403 40.0188 3.83228 38.468 3.83228C36.9171 3.83228 35.6554 5.09403 35.6554 6.64478C35.6554 8.19553 36.9171 9.45728 38.468 9.45728ZM38.468 5.70728C38.9849 5.70728 39.4054 6.12778 39.4054 6.64478C39.4054 7.16178 38.9849 7.58228 38.468 7.58228C37.951 7.58228 37.5304 7.16178 37.5304 6.64478C37.5304 6.12778 37.951 5.70728 38.468 5.70728Z" fill="#7F4D4F"/>
<path id="Vector_4" d="M11.2435 39.9061C10.7257 39.9061 10.306 40.3258 10.306 40.8436V42.3436C10.306 42.8615 10.7257 43.2811 11.2435 43.2811C11.7614 43.2811 12.181 42.8615 12.181 42.3436V40.8436C12.181 40.3258 11.7614 39.9061 11.2435 39.9061Z" fill="#7F4D4F"/>
<path id="Vector_5" d="M20.3107 23.1758C17.6572 23.1758 15.4985 25.3345 15.4985 27.9878C15.4985 30.6413 17.6573 32.8 20.3107 32.8C22.9641 32.8 25.1227 30.6412 25.1227 27.9878C25.1227 25.3345 22.9641 23.1758 20.3107 23.1758ZM20.3107 30.925C18.6911 30.925 17.3735 29.6074 17.3735 27.9878C17.3735 26.3683 18.6911 25.0508 20.3107 25.0508C21.9302 25.0508 23.2477 26.3683 23.2477 27.9878C23.2477 29.6074 21.9302 30.925 20.3107 30.925Z" fill="#7F4D4F"/>
</g>
</g>
<defs>
<clipPath id="clip0_1_2087">
<rect width="64" height="64" fill="white"/>
</clipPath>
</defs>
</svg>
