<svg width="16" height="16" viewBox="0 0 16 16" fill="none" xmlns="http://www.w3.org/2000/svg">
<g id="next (2) 1">
<g id="layer1">
<path id="path9429" d="M5.6892 3.31339C5.55066 3.31035 5.41462 3.35051 5.29998 3.42835C5.18535 3.5062 5.09781 3.61788 5.04955 3.74777C5.00129 3.87767 4.9947 4.01935 5.03069 4.15316C5.06669 4.28697 5.14348 4.40619 5.2504 4.49434L9.32983 7.98913L5.2504 11.4827C5.17644 11.537 5.1145 11.6061 5.06846 11.6855C5.02242 11.7649 4.99327 11.8529 4.98284 11.9441C4.9724 12.0353 4.98091 12.1277 5.00783 12.2154C5.03474 12.3032 5.07949 12.3844 5.13926 12.4541C5.19903 12.5238 5.27254 12.5803 5.35518 12.6202C5.43783 12.6601 5.52783 12.6825 5.61954 12.6861C5.71126 12.6896 5.80272 12.6742 5.8882 12.6408C5.97367 12.6074 6.05132 12.5566 6.11628 12.4918L10.7869 8.49563C10.8602 8.43304 10.9191 8.35535 10.9595 8.2678C10.9999 8.18024 11.0208 8.08494 11.0208 7.98851C11.0208 7.89209 10.9999 7.79679 10.9595 7.70923C10.9191 7.62167 10.8602 7.54391 10.7869 7.48132L6.11628 3.48133C5.9983 3.37653 5.84696 3.31695 5.6892 3.31324V3.31339Z" fill="#777777"/>
</g>
</g>
</svg>
