<svg width="25" height="25" viewBox="0 0 25 25" fill="none" xmlns="http://www.w3.org/2000/svg">
<g id="crow 1" clip-path="url(#clip0_1_5337)">
<g id="Group">
<g id="Group_2">
<path id="Vector" d="M19.8728 5.1765C20.2772 5.1765 20.605 4.8487 20.605 4.44433C20.605 4.03996 20.2772 3.71216 19.8728 3.71216C19.4684 3.71216 19.1406 4.03996 19.1406 4.44433C19.1406 4.8487 19.4684 5.1765 19.8728 5.1765Z" fill="#555555"/>
<path id="Vector_2" d="M20.4098 0.917519C18.0176 0.412285 15.7006 1.37636 14.3706 3.2414L0.144576 23.0535C-0.319679 23.6998 0.425136 24.4895 1.09232 24.122L6.24783 21.2841H7.88332C10.3312 21.2841 12.6684 20.8087 14.748 19.8985V22.7484H12.5515C12.1472 22.7484 11.8193 23.0762 11.8193 23.4806C11.8193 23.8849 12.1472 24.2128 12.5515 24.2128H15.4801C15.6743 24.2128 15.8605 24.1356 15.9978 23.9983C16.2507 23.7454 16.5869 23.6062 16.9444 23.6062C17.302 23.6062 17.6382 23.7454 17.891 23.9983C18.1769 24.2841 18.6405 24.2842 18.9264 23.9983C19.2124 23.7123 19.2124 23.2488 18.9264 22.9629C18.397 22.4334 17.6931 22.1418 16.9444 22.1418C16.6936 22.1418 16.448 22.175 16.2122 22.2384V19.1606C16.324 19.0963 16.4351 19.0311 16.545 18.964C18.2879 17.8993 20.6052 16.0576 20.6052 12.3708V8.20957C21.4543 8.48723 22.0695 9.28699 22.0695 10.2277C22.0695 10.5251 22.2495 10.7931 22.5249 10.9055C22.8003 11.0179 23.1164 10.9525 23.3246 10.7401C26.5485 7.45024 24.8719 1.85985 20.4098 0.917519ZM3.2265 21.272C3.23034 21.2666 10.8732 10.6678 10.8766 10.6629C11.7956 9.37422 13.1793 9.2531 14.1677 9.56942C15.1561 9.88575 16.2123 10.7877 16.2123 12.3706C16.2123 13.438 15.6327 14.4232 14.7014 14.9405L3.2265 21.272ZM19.508 6.73819C19.2877 6.86511 19.1421 7.10174 19.1409 7.36981V12.3708C19.1409 14.6473 18.1049 16.2953 15.7817 17.7144C13.8043 18.9223 11.4604 19.6307 8.94938 19.7867L15.4107 16.2216C16.8084 15.4451 17.6766 13.9694 17.6766 12.3705C17.6766 10.4172 16.4744 8.77015 14.614 8.17479C13.9968 7.97727 13.3715 7.91681 12.7699 7.98121L15.5614 4.09356C16.5894 2.65204 18.3272 1.97438 20.1071 2.35028C21.3792 2.61893 22.4622 3.47675 23.05 4.61296L19.508 6.73819ZM23.1087 8.5347C22.79 7.942 22.3098 7.44886 21.7271 7.11439L23.4959 6.0531C23.6083 6.9243 23.4716 7.77724 23.1087 8.5347Z" fill="#555555"/>
</g>
</g>
</g>
<defs>
<clipPath id="clip0_1_5337">
<rect width="25" height="25" fill="white"/>
</clipPath>
</defs>
</svg>
