<svg width="23" height="23" viewBox="0 0 23 23" fill="none" xmlns="http://www.w3.org/2000/svg">
<g id="toys 1" clip-path="url(#clip0_1_5345)">
<path id="Vector" d="M22.9998 16.4881C22.9935 15.7448 22.7004 15.0458 22.1747 14.5201C21.0757 13.4211 19.2874 13.4211 18.1886 14.5201L17.2968 15.4119H10.4443L9.55256 14.5201C9.02017 13.9877 8.31229 13.6945 7.5595 13.6945C7.44966 13.6945 7.34104 13.7015 7.23364 13.7138C8.46426 8.86558 12.3186 5.08477 17.2117 3.95962C18.7951 5.66349 19.7653 7.94485 19.7653 10.4489C19.7653 11.3466 19.6407 12.2351 19.3952 13.0895C19.3431 13.2707 19.4478 13.4601 19.6291 13.5122C19.6607 13.5211 19.6924 13.5255 19.7237 13.5255C19.8719 13.5255 20.0086 13.428 20.0518 13.2783C20.315 12.3625 20.4484 11.4105 20.4484 10.4489C20.4484 7.71779 19.3848 5.15022 17.4537 3.21928C15.5226 1.28817 12.9552 0.224609 10.2241 0.224609C8.10909 0.224609 6.07936 0.864922 4.35444 2.07641C4.20019 2.18468 4.16282 2.39788 4.27126 2.55212C4.3797 2.70654 4.59273 2.74374 4.74715 2.6353C6.35644 1.50523 8.25035 0.907738 10.2241 0.907738C11.0292 0.907738 11.8109 1.00846 12.5583 1.1971C10.9171 1.78617 9.39428 2.64091 8.02048 3.74764C6.37767 5.07091 5.03704 6.68002 4.0356 8.53042C2.87465 10.6754 2.22819 13.0889 2.15432 15.5391C2.01903 15.3254 1.89163 15.1069 1.77406 14.8832C1.0604 13.5262 0.683128 11.9929 0.683128 10.4489C0.683128 7.72393 1.85267 5.1225 3.89188 3.31194C4.03296 3.18665 4.04577 2.97081 3.92048 2.82973C3.79537 2.68864 3.57953 2.67583 3.43828 2.80095C1.25325 4.74119 0 7.5288 0 10.4489C0 12.1031 0.404297 13.7464 1.16937 15.2011C1.9097 16.609 2.98643 17.8433 4.28284 18.7705C4.34303 18.8137 4.41252 18.8344 4.4813 18.8344C4.58782 18.8344 4.69275 18.7847 4.75943 18.6914C4.86911 18.538 4.83366 18.3246 4.68029 18.2148C3.99331 17.7234 3.37265 17.1396 2.8378 16.4865C2.83288 16.3337 2.83025 16.1745 2.83025 16.0117C2.83025 13.5134 3.45477 11.0388 4.63643 8.85575C5.59452 7.08537 6.87725 5.54592 8.44899 4.27969C10.0067 3.02486 11.7641 2.1087 13.6734 1.55314C14.7774 1.9827 15.7823 2.61179 16.6435 3.39616C11.5797 4.72364 7.64443 8.77731 6.48542 13.9056C6.14569 14.0455 5.83387 14.2525 5.56627 14.5201C5.04055 15.0458 4.7475 15.7448 4.74118 16.4879C4.73574 17.1249 4.94105 17.7331 5.32464 18.2306C4.94105 18.7279 4.73574 19.3359 4.74118 19.973C4.7475 20.7164 5.04055 21.4151 5.56627 21.9408C6.11586 22.4904 6.8376 22.7652 7.5595 22.7652C8.28124 22.7652 9.00314 22.4904 9.55256 21.9408L10.4443 21.0492H17.2968L18.1886 21.9408C19.2876 23.0398 21.0759 23.0398 22.1747 21.9408C22.7004 21.4151 22.9935 20.7164 22.9998 19.973C23.0054 19.3361 22.7999 18.7279 22.4163 18.2306C22.7999 17.7331 23.0054 17.1251 22.9998 16.4881ZM21.7197 18.4675C22.5211 19.2996 22.5085 20.6411 21.6916 21.4579C21.2752 21.8741 20.7286 22.0824 20.1817 22.0823C19.6349 22.0823 19.0879 21.8741 18.6715 21.4579L17.6799 20.4661C17.6159 20.4021 17.5288 20.3659 17.4383 20.3659H10.3027C10.2122 20.3659 10.1253 20.4021 10.0613 20.4661L9.06947 21.4579C8.66605 21.8612 8.1298 22.0833 7.5595 22.0833C6.98903 22.0833 6.45278 21.8612 6.04936 21.4579C5.23252 20.6411 5.21988 19.2996 6.02128 18.4675C6.14868 18.3351 6.14868 18.1258 6.02128 17.9937C5.21988 17.1616 5.23252 15.82 6.04936 15.0032C6.46576 14.5868 7.01255 14.3787 7.5595 14.3787C8.10629 14.3787 8.65307 14.587 9.06947 15.0032L10.0613 15.995C10.1253 16.059 10.2122 16.095 10.3027 16.095H17.4383C17.5288 16.095 17.6157 16.059 17.6797 15.995L18.6715 15.0032C19.5042 14.1706 20.859 14.1706 21.6916 15.0032C22.5085 15.82 22.5211 17.1616 21.7197 17.9935C21.5923 18.1258 21.5923 18.3351 21.7197 18.4675Z" fill="#333333"/>
<path id="Vector_2" d="M21.0155 15.6108C21.071 15.4723 21.0322 15.3112 20.9166 15.2161C20.7962 15.117 20.6181 15.1137 20.494 15.2077C20.2573 15.387 20.3578 15.7741 20.6507 15.8178C20.8039 15.8408 20.9557 15.7527 21.0155 15.6108Z" fill="#333333"/>
<path id="Vector_3" d="M21.6076 16.1693C21.4909 15.8926 21.0819 15.8943 20.9734 16.1772C20.9192 16.3188 20.9666 16.483 21.088 16.5738C21.2042 16.6603 21.3683 16.6636 21.487 16.5803C21.6178 16.4887 21.6669 16.317 21.6076 16.1693Z" fill="#333333"/>
<path id="Vector_4" d="M6.68801 20.5059C6.66239 20.3687 6.5485 20.2602 6.41198 20.2362C6.27493 20.212 6.13175 20.2773 6.06033 20.3969C5.98505 20.5233 5.99996 20.6896 6.09823 20.7993C6.19404 20.9067 6.35074 20.943 6.4841 20.8881C6.63168 20.8272 6.72082 20.6631 6.68801 20.5059Z" fill="#333333"/>
<path id="Vector_5" d="M7.35285 21.0881C7.2974 20.9566 7.16333 20.8703 7.01997 20.8782C6.88099 20.8856 6.75641 20.9789 6.71306 21.1117C6.66937 21.2453 6.71289 21.3951 6.82203 21.4839C6.93644 21.5769 7.10367 21.5852 7.2265 21.5031C7.36145 21.4129 7.41268 21.2377 7.35285 21.0881Z" fill="#333333"/>
<path id="Vector_6" d="M20.5603 16.215C20.5061 16.0867 20.3771 16.0012 20.2376 16.0042C20.0981 16.0072 19.9698 16.0986 19.9232 16.2304C19.8173 16.53 20.1567 16.8025 20.4252 16.6352C20.5663 16.5475 20.6215 16.3682 20.5603 16.215Z" fill="#333333"/>
</g>
<defs>
<clipPath id="clip0_1_5345">
<rect width="23" height="23" fill="white"/>
</clipPath>
</defs>
</svg>
