<svg width="42" height="42" viewBox="0 0 42 42" fill="none" xmlns="http://www.w3.org/2000/svg">
<g id="phone (4) 1" clip-path="url(#clip0_1_661)">
<path id="Vector" d="M30.2258 42C22.863 42 15.0004 39.2945 8.85281 33.1471C2.71548 27.0097 0 19.1523 0 11.7742C0 5.27166 5.26083 0 11.7742 0C12.2774 0 12.7298 0.306305 12.9166 0.773473L18.1885 13.9532C18.441 14.5842 18.1341 15.3002 17.5032 15.5526L11.712 17.869C12.1217 24.5314 17.4696 29.8791 24.131 30.2882L26.4475 24.497C26.6993 23.8671 27.4151 23.559 28.0469 23.8115L41.2264 29.0834C41.6936 29.2702 42 29.7226 42 30.2258C42 36.7283 36.7392 42 30.2258 42ZM10.9553 2.49621C6.24274 2.90399 2.46094 6.85576 2.46094 11.7742C2.46094 19.1905 5.34893 26.1629 10.593 31.4069C15.837 36.651 22.8094 39.5391 30.2258 39.5391C35.1427 39.5391 39.0958 35.7594 39.5039 31.0447L28.2754 26.5534L26.0964 32.0007C25.9096 32.4679 25.4571 32.7742 24.9539 32.7742C16.2808 32.7742 9.22581 25.7192 9.22581 17.0474C9.22581 16.5443 9.53211 16.0904 9.99928 15.9036L15.4466 13.7246L10.9553 2.49621Z" fill="#7F4D4F"/>
</g>
<defs>
<clipPath id="clip0_1_661">
<rect width="42" height="42" fill="white"/>
</clipPath>
</defs>
</svg>
