<svg width="17" height="17" viewBox="0 0 17 17" fill="none" xmlns="http://www.w3.org/2000/svg">
<g id="pinterest (1) 1" clip-path="url(#clip0_1_4872)">
<path id="Vector" d="M8.73092 0C4.07079 0.000708333 1.59375 2.98633 1.59375 6.24183C1.59375 7.75129 2.43737 9.63475 3.78817 10.2319C4.1735 10.4054 4.1225 10.1936 4.454 8.92571C4.48021 8.82016 4.46675 8.72879 4.38175 8.63033C2.45083 6.39696 4.00492 1.80554 8.45537 1.80554C14.8962 1.80554 13.6928 10.7178 9.57596 10.7178C8.51487 10.7178 7.72437 9.88479 7.97442 8.85417C8.27758 7.62662 8.87117 6.307 8.87117 5.42229C8.87117 3.19246 5.54908 3.52325 5.54908 6.47771C5.54908 7.39075 5.87208 8.007 5.87208 8.007C5.87208 8.007 4.80321 12.325 4.60487 13.1318C4.26912 14.4975 4.65021 16.7082 4.6835 16.8987C4.70404 17.0035 4.82162 17.0368 4.8875 16.9504C4.99304 16.8123 6.28504 14.9692 6.647 13.6368C6.77875 13.1516 7.31921 11.1825 7.31921 11.1825C7.6755 11.8256 8.70258 12.364 9.79696 12.364C13.0525 12.364 15.4055 9.50229 15.4055 5.95142C15.3942 2.54717 12.4808 0 8.73092 0V0Z" fill="#7F4D4F"/>
</g>
<defs>
<clipPath id="clip0_1_4872">
<rect width="17" height="17" fill="white"/>
</clipPath>
</defs>
</svg>
