<svg width="26" height="26" viewBox="0 0 26 26" fill="none" xmlns="http://www.w3.org/2000/svg">
<g id="rabbit (3) 1" clip-path="url(#clip0_1_5327)">
<g id="XMLID_224_">
<path id="XMLID_233_" d="M21.8415 21.2315C22.3156 20.1244 22.8488 18.0447 21.9656 15.2795C21.8936 15.0539 21.7692 14.4868 22.169 14.0946C23.4471 12.8408 24.059 11.598 23.9878 10.4006C23.9183 9.23158 23.3297 8.11479 22.3304 7.25586C22 6.9718 21.6345 6.72782 21.2489 6.52795C21.3196 5.79575 21.2734 5.09899 21.1097 4.45037C20.495 2.01474 18.289 0.524455 18.1953 0.462172L17.5003 0L17.108 0.736639C17.0908 0.76879 16.8168 1.28976 16.5856 2.07758C15.5466 1.26856 14.5353 0.898906 14.4664 0.874327L13.7417 0.615405L13.4947 1.34432C13.456 1.45859 12.5595 4.16995 13.6942 6.51594C13.993 7.13366 14.3461 7.70834 14.7308 8.20589C14.2775 8.95106 14.0327 9.81383 14.0327 10.6913C14.0327 10.7198 14.0333 10.7482 14.034 10.7765C14.0344 10.7925 14.0348 10.8084 14.0348 10.8243C14.0348 11.4793 13.6464 11.6677 11.8476 11.8853C11.2652 11.9558 10.6628 12.0286 10.0849 12.1832C8.57945 12.586 7.28984 13.4548 6.35545 14.6959C5.92089 15.2731 5.58394 15.9051 5.34733 16.5743C5.307 16.5728 5.26662 16.5719 5.22619 16.5719C3.45104 16.5719 2.00684 18.0161 2.00684 19.7913C2.00684 21.5665 3.45104 23.0107 5.22619 23.0107C5.28202 23.0107 5.33774 23.0088 5.39336 23.006C5.64299 23.5626 5.9967 24.0749 6.44454 24.5191C7.39109 25.458 8.64673 25.9837 9.98015 25.9993L20.6658 26C22.0533 26 23.1821 24.8712 23.1821 23.4837C23.1821 22.5216 22.6415 21.67 21.8415 21.2315ZM3.521 19.7913C3.521 18.9306 4.16209 18.2172 4.9917 18.1026C4.95849 18.3849 4.94148 18.6711 4.94148 18.9603L4.96026 20.9864C4.96076 21.152 4.96934 21.3165 4.9858 21.4793C4.15906 21.362 3.521 20.6499 3.521 19.7913ZM19.6416 4.82088C19.735 5.19089 19.776 5.58745 19.7651 6.00602C19.5229 5.95852 19.2796 5.92763 19.0377 5.91648C19.0348 5.91633 19.032 5.91623 19.0291 5.91608C18.8785 5.36295 18.6641 4.79398 18.3968 4.24136C18.2399 3.91708 18.0534 3.61905 17.8483 3.34579C17.9077 2.96977 17.9973 2.62535 18.0897 2.3368C18.6496 2.8762 19.3693 3.7421 19.6416 4.82088ZM20.6657 24.4858H18.4862C18.6243 24.1732 18.7011 23.8276 18.7011 23.4645C18.7011 22.0664 17.5637 20.929 16.1656 20.929H15.0176C15.0174 20.9066 15.0171 20.8842 15.0166 20.8618C14.9996 20.0667 14.7894 19.277 14.4088 18.5784L13.0791 19.3029C13.3482 19.7967 13.4907 20.3321 13.5027 20.8941C13.5075 21.117 13.4912 21.341 13.4542 21.5601L13.3052 22.4431H16.1656C16.7288 22.4431 17.1869 22.9013 17.1869 23.4645C17.1869 24.0277 16.7288 24.4858 16.1657 24.4858L9.99383 24.4852C8.05737 24.4604 6.47901 22.8888 6.47447 20.9799L6.45569 18.9566C6.45726 16.4229 8.07256 14.289 10.4762 13.646C10.9508 13.519 11.4992 13.4527 12.0295 13.3885C12.8409 13.2903 13.6073 13.1976 14.2445 12.8988C15.0979 12.4987 15.549 11.7814 15.549 10.8242C15.549 10.796 15.5484 10.7677 15.5477 10.7394C15.5473 10.7234 15.5468 10.7073 15.5468 10.6912C15.5468 9.93673 15.7976 9.2277 16.2721 8.64076L16.6807 8.13528L16.2429 7.65484C15.8026 7.17167 15.3926 6.54985 15.0573 5.85657C14.5248 4.75557 14.5992 3.48413 14.7351 2.66936C15.4586 3.06885 16.5013 3.79979 17.0338 4.90063C17.3466 5.54733 17.5722 6.21305 17.6861 6.82578L17.8127 7.5061L18.5015 7.44109C18.6605 7.4261 18.8175 7.42201 18.9681 7.42892C20.7449 7.51074 22.3843 8.94132 22.4764 10.4904C22.5204 11.2312 22.0603 12.0802 21.1087 13.0136C20.4144 13.6947 20.1955 14.714 20.5233 15.7401C21.5904 19.0813 20.2172 21.1183 20.1352 21.2355L19.3103 22.334L20.693 22.435C21.2397 22.4748 21.6679 22.9355 21.6679 23.4836C21.668 24.0362 21.2184 24.4858 20.6657 24.4858Z" fill="#555555"/>
<path id="XMLID_246_" d="M20.381 9.9895C20.3626 9.57932 20.0483 9.23242 19.6239 9.23242C19.2279 9.23242 18.8485 9.58063 18.8668 9.9895C18.8852 10.3997 19.1995 10.7466 19.6239 10.7466C20.0199 10.7466 20.3993 10.3984 20.381 9.9895Z" fill="#555555"/>
</g>
</g>
<defs>
<clipPath id="clip0_1_5327">
<rect width="26" height="26" fill="white"/>
</clipPath>
</defs>
</svg>
