<svg width="136" height="122" viewBox="0 0 136 122" fill="none" xmlns="http://www.w3.org/2000/svg">
<g id="Frame">
<g id="Group">
<g id="Group_2">
<g id="Group_3">
<g id="Group_4">
<path id="Vector" opacity="0.96" d="M81.7984 83.6233C81.8168 83.6668 81.8352 83.7101 81.8535 83.7533L81.3718 52.8654C81.3324 50.3367 79.6987 48.1092 77.2987 47.3117C72.4629 45.7049 67.9837 50.5206 69.9356 55.2231C71.5208 59.042 73.2634 63.2345 74.9811 67.3561L74.9812 67.3562C77.4991 73.3998 79.963 79.2886 81.7984 83.6233Z" stroke="#7F4D4F" stroke-width="3"/>
</g>
<g id="Group_5">
<path id="Vector_2" opacity="0.96" d="M68.0681 91.3104C69.9918 91.9438 71.7756 92.5286 73.3545 93.043L50.0969 73.3199C48.0551 71.5884 45.1404 71.3406 42.8356 72.7025C38.3295 75.3652 38.9934 81.6456 43.9456 83.299C51.6355 85.8666 60.834 88.9289 68.0681 91.3104Z" stroke="#7F4D4F" stroke-width="3"/>
</g>
<g id="Group_6">
<path id="Vector_3" opacity="0.96" d="M100.697 79.2724C99.7738 83.3337 98.7203 87.9865 97.874 91.7754L106.041 79.8404C106.384 79.3402 106.375 78.6789 106.019 78.1882C105.862 77.9717 105.553 77.7512 105.014 77.6267C104.477 77.5026 103.812 77.5012 103.134 77.6395C102.455 77.7779 101.844 78.0396 101.4 78.3635C100.954 78.6889 100.756 79.0123 100.697 79.2724Z" stroke="#7F4D4F" stroke-width="3"/>
</g>
</g>
</g>
</g>
</g>
</svg>
