<svg width="106" height="106" viewBox="0 0 106 106" fill="none" xmlns="http://www.w3.org/2000/svg">
<g id="scribble 1" clip-path="url(#clip0_1_2632)">
<g id="Group">
<g id="Group_2">
<path id="Vector" d="M39.3608 86.5627C56.1912 93.1174 73.4442 78.9914 68.9549 61.1783C68.7656 60.2756 68.3768 59.3204 68.0615 58.4912C56.5364 62.1803 42.2483 60.5586 36.1458 52.1312C30.6841 44.5119 37.4734 37.3393 45.5362 38.7115C55.1214 40.377 64.2879 45.6644 69.5923 53.8819C76.6562 50.9398 82.05 45.4264 81.8263 36.9443C81.4221 22.6572 64.9576 12.6799 51.8781 14.5744C50.524 14.8584 49.9983 12.801 51.3524 12.5171C68.3888 8.14372 87.8578 24.1349 84.9671 42.0345C83.7836 48.9742 78.3686 54.162 71.3782 57.23C75.4968 66.309 72.7925 77.0073 66.4023 84.2846C58.9731 92.6752 47.9612 93.1939 38.3541 89.1768C36.8105 88.5581 37.8911 86.0698 39.3608 86.5627ZM52.719 44.6505C49.0862 43.0562 44.603 41.4518 40.5407 42.3036C36.6045 43.0818 38.118 48.2778 39.1687 50.3663C40.5134 52.9588 43.6003 54.1963 46.267 55.0037C51.9467 56.9225 59.5998 57.0143 66.2755 55.1429C63.0299 50.4516 57.8428 47.063 52.719 44.6505Z" fill="#7F4D4F"/>
<path id="Vector_2" d="M29.5873 86.0204C33.1138 83.9615 36.9133 82.081 40.8285 80.9772C42.4343 80.5463 42.9078 82.803 41.3751 83.3601C38.3102 84.4741 35.487 86.2913 32.7897 88.0349C33.8714 89.5985 35.0268 91.2882 36.2346 92.7784C37.2219 93.8908 39.2065 95.2653 39.1861 96.9659C39.1761 97.8164 38.5463 98.1841 37.7694 98.2997C35.8904 98.5523 34.3462 95.9075 33.2855 94.6691C31.584 92.6225 30.2083 90.555 28.8846 88.2878C28.4436 87.5326 28.8316 86.4616 29.5873 86.0204Z" fill="#7F4D4F"/>
</g>
</g>
</g>
<defs>
<clipPath id="clip0_1_2632">
<rect width="76.9846" height="76.9846" fill="white" transform="matrix(-0.863587 0.5042 0.5042 0.863587 66.4834 0)"/>
</clipPath>
</defs>
</svg>
