<svg width="62" height="62" viewBox="0 0 62 62" fill="none" xmlns="http://www.w3.org/2000/svg">
<g id="security 1" clip-path="url(#clip0_1_2116)">
<path id="Vector" d="M54.4778 12.5533L31.1754 0.136617C30.8298 -0.0478851 30.4154 -0.0452958 30.0723 0.143091L7.4148 12.5598C7.04321 12.7637 6.81274 13.1534 6.81274 13.5774V29.7968C6.82634 43.1295 14.7256 55.1914 26.9416 60.5329L30.0866 61.9034C30.3805 62.0316 30.7152 62.0323 31.0097 61.9047L34.5535 60.3743C46.996 55.1487 55.0908 42.9703 55.0921 29.4751V13.5774C55.0921 13.1489 54.8558 12.7546 54.4778 12.5533ZM52.7719 29.4751C52.7693 42.04 45.2306 53.3775 33.6452 58.2399L33.6374 58.2438L30.5514 59.5761L27.8699 58.4063C16.4988 53.4345 9.14524 42.2077 9.13229 29.7968V14.2643L30.6375 2.47818L52.7719 14.2727V29.4751Z" fill="#7F4D4F"/>
<path id="Vector_2" d="M22.0785 29.0445C21.6622 28.557 20.93 28.4994 20.4426 28.9157C19.9551 29.3313 19.8975 30.0641 20.3137 30.5509L26.4418 37.7271C26.8509 38.2062 27.5676 38.2715 28.0557 37.8741L42.3278 26.2627C42.825 25.8587 42.9 25.1279 42.4954 24.6307C42.0915 24.1341 41.3606 24.0584 40.8634 24.463L27.4705 35.3583L22.0785 29.0445Z" fill="#7F4D4F"/>
</g>
<defs>
<clipPath id="clip0_1_2116">
<rect width="62" height="62" fill="white"/>
</clipPath>
</defs>
</svg>
