<svg width="52" height="52" viewBox="0 0 52 52" fill="none" xmlns="http://www.w3.org/2000/svg">
<g id="secure-shield 1" clip-path="url(#clip0_1_4924)">
<g id="Group">
<g id="Group_2">
<g id="Group_3">
<path id="Vector" d="M47.3683 8.97925C40.2138 7.0189 33.0172 3.96644 26.5565 0.151963C26.2133 -0.0506542 25.7875 -0.0506542 25.4444 0.151963C18.7973 4.07603 11.9896 6.96334 4.63193 8.97925C4.15662 9.10935 3.82715 9.5414 3.82715 10.0343V21.2108C3.82715 32.7202 9.13672 40.3385 13.591 44.7028C18.3864 49.4016 23.9723 52 26.0004 52C28.0283 52 33.6143 49.4016 38.4096 44.7028C42.8638 40.3386 48.1731 32.7203 48.1731 21.2108V10.0342C48.1731 9.5414 47.8436 9.10935 47.3683 8.97925ZM45.9854 21.2107C45.9854 31.9604 41.0332 39.0692 36.8785 43.14C32.1628 47.7606 27.121 49.8122 26.0004 49.8122C24.8799 49.8122 19.8377 47.7606 15.122 43.14C10.9674 39.0691 6.0149 31.9604 6.0149 21.2107V10.8646C13.0509 8.86682 19.6035 6.07883 26.0006 2.36135C32.238 5.98022 39.1175 8.90684 45.9854 10.8641V21.2107Z" fill="#F8FBFF"/>
<path id="Vector_2" d="M16.3046 10.7421C16.0832 10.1799 15.4481 9.90378 14.8859 10.1253C12.9318 10.8952 10.9262 11.6039 8.92469 12.2318C8.46858 12.375 8.1582 12.7975 8.1582 13.2754V17.4995C8.1582 18.1036 8.64804 18.5934 9.25203 18.5934C9.85602 18.5934 10.3459 18.1036 10.3459 17.4995V14.0748C12.1414 13.4939 13.935 12.8513 15.6878 12.1606C16.25 11.9393 16.5261 11.3042 16.3046 10.7421Z" fill="#F8FBFF"/>
<path id="Vector_3" d="M18.3825 10.9496C18.5292 10.9496 18.6782 10.92 18.8211 10.8577L18.8412 10.8489C19.3946 10.6064 19.6439 9.96221 19.4013 9.409C19.1586 8.85559 18.5107 8.60523 17.9579 8.84756L17.9403 8.85518C17.3865 9.097 17.1365 9.7407 17.3783 10.2942C17.5578 10.7051 17.9605 10.9496 18.3825 10.9496Z" fill="#F8FBFF"/>
<path id="Vector_4" d="M39.0333 35.271C38.5278 34.9406 37.85 35.0827 37.5192 35.5884C36.6178 36.968 35.5604 38.2891 34.3757 39.5147C33.4015 40.5224 32.3459 41.4616 31.2382 42.3061C30.7579 42.6724 30.6655 43.3587 31.0316 43.8392C31.247 44.1215 31.5727 44.2699 31.9022 44.2699C32.1335 44.2699 32.3666 44.1969 32.5647 44.0458C33.7596 43.1347 34.8981 42.1218 35.9484 41.0353C37.2292 39.7105 38.3738 38.2805 39.3507 36.785C39.6812 36.2792 39.539 35.6014 39.0333 35.271Z" fill="#F8FBFF"/>
<path id="Vector_5" d="M28.6977 44.0216L28.6349 44.0586C28.1122 44.3613 27.9335 45.0304 28.2362 45.5532C28.439 45.9035 28.8062 46.0991 29.1839 46.0991C29.3697 46.0991 29.5584 46.0517 29.7308 45.9517L29.8032 45.9091C30.3245 45.6038 30.4996 44.9338 30.1943 44.4125C29.8888 43.8914 29.2187 43.7166 28.6977 44.0216Z" fill="#F8FBFF"/>
<path id="Vector_6" d="M18.5448 23.7675C17.8731 23.0958 16.9799 22.7261 16.0299 22.7261C15.0799 22.7261 14.1865 23.0959 13.5146 23.7675C12.128 25.1544 12.128 27.4111 13.5146 28.798L19.9735 35.2567C20.6453 35.9283 21.5385 36.2981 22.4886 36.2981C23.4387 36.2981 24.332 35.9283 25.0038 35.2565L38.4873 21.7729C39.8739 20.3857 39.8739 18.1293 38.4871 16.7428C37.8154 16.0711 36.9222 15.7014 35.9719 15.7014C35.0218 15.7014 34.1286 16.0712 33.4567 16.7428L22.4885 27.7111L18.5448 23.7675ZM35.0037 18.2898C35.2622 18.0314 35.6062 17.8891 35.972 17.8891C36.3381 17.8891 36.6818 18.0314 36.9404 18.2898C37.4741 18.8235 37.4741 19.6923 36.9402 20.2262L23.4569 33.7096C23.1984 33.9681 22.8545 34.1104 22.4886 34.1104C22.1228 34.1104 21.7788 33.9681 21.5202 33.7096L15.0615 27.2511C14.5276 26.7172 14.5276 25.8484 15.0613 25.3147C15.3199 25.0562 15.6638 24.9137 16.0298 24.9137C16.3957 24.9137 16.7395 25.056 16.998 25.3145L21.715 30.0317C21.9203 30.2367 22.1984 30.352 22.4885 30.352C22.7787 30.352 23.0568 30.2368 23.2618 30.0317L35.0037 18.2898Z" fill="#F8FBFF"/>
</g>
</g>
</g>
</g>
<defs>
<clipPath id="clip0_1_4924">
<rect width="52" height="52" fill="white"/>
</clipPath>
</defs>
</svg>
