<svg width="43" height="43" viewBox="0 0 43 43" fill="none" xmlns="http://www.w3.org/2000/svg">
<g id="send (3) 1" clip-path="url(#clip0_1_677)">
<g id="Group">
<g id="Group_2">
<path id="Vector" d="M42.631 0.369286C42.2747 0.0128568 41.74 -0.0967426 41.2724 0.0903742L0.791931 16.2824C0.328758 16.4676 0.018604 16.9087 0.000799392 17.4073C-0.0169213 17.9059 0.261234 18.3679 0.710046 18.5855L16.6728 26.3273L24.4146 42.29C24.6257 42.7254 25.0666 43.0001 25.5478 43.0001C25.5627 43.0001 25.5778 42.9998 25.5928 42.9992C26.0912 42.9815 26.5325 42.6714 26.7177 42.2082L42.9098 1.72798C43.097 1.26002 42.9874 0.725631 42.631 0.369286ZM4.37503 17.5628L36.5096 4.70909L17.3587 23.8598L4.37503 17.5628ZM25.4373 38.6251L19.1403 25.6412L38.2912 6.49056L25.4373 38.6251Z" fill="#7F4D4F"/>
</g>
</g>
</g>
<defs>
<clipPath id="clip0_1_677">
<rect width="43" height="43" fill="white"/>
</clipPath>
</defs>
</svg>
