<svg width="45" height="48" viewBox="0 0 45 48" fill="none" xmlns="http://www.w3.org/2000/svg">
<g id="Shape">
<path id="Vector" d="M39.3965 37.7249L39.3961 37.7252C38.4783 38.3129 37.3296 38.2659 35.2523 37.8942C35.0933 37.8658 34.9275 37.835 34.7559 37.8031C32.9856 37.4742 30.58 37.0273 28.2601 37.7912C28.249 37.7945 28.2394 37.7974 28.2315 37.7998C28.2283 37.8008 28.2252 37.8018 28.2223 37.8027C25.8857 38.4849 24.1586 40.2048 22.8868 41.4712C22.7631 41.5943 22.6438 41.7132 22.5286 41.8264C21.0242 43.3047 20.1029 43.9913 19.0132 44.024C17.9236 44.0567 17.1002 43.5229 16.7442 42.3657C16.3431 41.0624 16.4805 38.676 18.436 35.2203L18.4362 35.22C19.2197 33.8351 19.7799 32.5043 20.2426 31.3074C20.4134 30.8654 20.5643 30.4608 20.7058 30.0815C20.966 29.3839 21.1941 28.7722 21.4551 28.1726C22.1865 26.4924 22.8981 25.5874 24.3188 25.0921C25.7719 24.6995 26.8711 25.0454 28.4243 26.0199C28.9784 26.3676 29.512 26.7436 30.1206 27.1725C30.4518 27.4059 30.8052 27.6549 31.1961 27.9235C32.2542 28.6504 33.4683 29.4327 34.8974 30.1338L39.3965 37.7249ZM39.3965 37.7249C40.3134 37.1381 40.6913 36.2345 40.3316 35.079M39.3965 37.7249L40.3316 35.079M40.3316 35.079C39.9263 33.7768 38.4643 31.884 34.8975 30.1338L40.3316 35.079Z" fill="#DA8A27" fill-opacity="0.03" stroke="#9E9E9E" stroke-width="4"/>
<path id="Vector_2" d="M41.321 19.2042L41.3209 19.2047C40.7162 20.9763 39.7318 22.3329 38.7305 23.1245C37.7098 23.9313 36.9086 23.9997 36.4253 23.8347C35.9421 23.6699 35.3504 23.1265 35.0365 21.8649C34.7285 20.627 34.7793 18.952 35.3845 17.1802C35.9897 15.4092 36.9743 14.0526 37.9759 13.2609C38.9967 12.454 39.7976 12.3854 40.2802 12.5497L41.321 19.2042ZM41.321 19.2042C41.9263 17.4324 41.9771 15.7575 41.6691 14.5195M41.321 19.2042L41.6691 14.5195M41.6691 14.5195C41.3552 13.2584 40.7639 12.715 40.2808 12.5499L41.6691 14.5195Z" fill="#DA8A27" fill-opacity="0.03" stroke="#9E9E9E" stroke-width="4"/>
<path id="Vector_3" d="M13.6182 30.8833C13.9231 30.4758 14.1049 29.6945 13.6513 28.4759C13.2063 27.2802 12.218 25.926 10.7173 24.8045C9.21676 23.683 7.63716 23.1183 6.36283 23.0297C5.06367 22.9394 4.36419 23.3352 4.05913 23.743C3.75427 24.1505 3.57241 24.9317 4.02604 26.1504C4.47111 27.346 5.45938 28.7002 6.96006 29.8218C8.46061 30.9432 10.0402 31.5079 11.3145 31.5965C12.6137 31.6868 13.3132 31.2911 13.6182 30.8833Z" fill="#DA8A27" fill-opacity="0.03" stroke="#9E9E9E" stroke-width="4"/>
<path id="Vector_4" d="M25.8029 3.94713L25.8031 3.9471C26.3862 3.87468 27.2321 4.1444 28.1269 5.21403C29.0059 6.26472 29.7376 7.89722 29.9831 9.87369C30.2286 11.8508 29.9191 13.613 29.3244 14.8467C28.7191 16.1025 27.9657 16.5706 27.3824 16.643C26.7986 16.7155 25.9527 16.4456 25.058 15.3761C24.179 14.3255 23.4473 12.693 23.2012 10.7164L25.8029 3.94713ZM25.8029 3.94713C25.2189 4.01959 24.4653 4.48793 23.86 5.74348M25.8029 3.94713L23.86 5.74348M23.86 5.74348C23.2653 6.97707 22.9558 8.739 23.2012 10.7159L23.86 5.74348Z" fill="#DA8A27" fill-opacity="0.03" stroke="#9E9E9E" stroke-width="4"/>
<path id="Vector_5" d="M17.0212 19.8445C17.5433 19.5754 18.0886 18.8763 18.2229 17.4893C18.3548 16.1265 18.0366 14.3662 17.1229 12.5958C16.2091 10.8253 14.9582 9.54518 13.7701 8.86209C12.5606 8.16672 11.6736 8.20543 11.1512 8.4747C10.6291 8.74382 10.0837 9.44288 9.94943 10.8299C9.8175 12.1927 10.1357 13.953 11.0494 15.7234C11.9632 17.4939 13.2141 18.774 14.4023 19.4571C15.6118 20.1525 16.4987 20.1138 17.0212 19.8445Z" fill="#DA8A27" fill-opacity="0.03" stroke="#9E9E9E" stroke-width="4"/>
</g>
</svg>
