<svg width="20" height="20" viewBox="0 0 20 20" fill="none" xmlns="http://www.w3.org/2000/svg">
<g id="twitter (1) 1">
<path id="_x30_4.Twitter" d="M17.2255 4.82869C16.6507 5.07779 16.0567 5.25024 15.4244 5.32688C16.0758 4.94366 16.574 4.3305 16.804 3.58321C16.1908 3.94727 15.5202 4.19637 14.8112 4.34966C14.2364 3.7365 13.4124 3.35327 12.5118 3.35327C10.7682 3.35327 9.36939 4.77121 9.36939 6.49572C9.36939 6.74482 9.38855 6.97475 9.44603 7.20469C6.8401 7.08972 4.54074 5.82508 2.98868 3.92811C1.87732 5.92088 3.12281 7.56875 3.94674 8.12443C3.44855 8.12443 2.95036 7.97114 2.52881 7.74121C2.52881 9.29327 3.621 10.5771 5.03894 10.8645C4.73236 10.9603 4.04255 11.0178 3.621 10.922C4.02339 12.1675 5.19223 13.0872 6.55268 13.1064C5.47965 13.9495 3.90842 14.6201 1.89648 14.4093C3.29526 15.3099 4.94313 15.8273 6.72513 15.8273C12.5118 15.8273 15.6543 11.0369 15.6543 6.89811C15.6543 6.76398 15.6543 6.62985 15.6351 6.49572C16.2866 6.01669 16.8231 5.46101 17.2255 4.82869Z" fill="#F8FBFF"/>
</g>
</svg>
